<svg xmlns="http://www.w3.org/2000/svg" width="16" height="16" viewBox="0 0 15.76 13.56"><g><path d="M4.4,4.88V8.26a2,2,0,0,0,.5.39s.1,0,.18-.12a.62.62,0,0,0,.17-.28c.06-.19.13-.44.21-.74s.14-.52.19-.66a.58.58,0,0,1,.21-.3,2.41,2.41,0,0,1,.63-.21,3.83,3.83,0,0,1,.88-.12,9.15,9.15,0,0,1,1.31.06.16.16,0,0,1,.11,0,.26.26,0,0,1,.06.14,4,4,0,0,1,0,.49v2l.05,3.77c0,1.41,0,2.68-.05,3.81a1.79,1.79,0,0,1-.11.49,10.68,10.68,0,0,1-1.4.45,1.12,1.12,0,0,0-.69.43v.31l0,.22.61,0c.85-.08,1.54-.12,2.06-.12a19.76,19.76,0,0,1,2.09.08,15.08,15.08,0,0,0,1.64.08,1.4,1.4,0,0,0,.29,0,1.58,1.58,0,0,0,0-.26l-.05-.43a2.26,2.26,0,0,0-.43-.17l-.77-.22-.15,0a2.55,2.55,0,0,1-.78-.28,2.56,2.56,0,0,1-.11-.75l0-1.29,0-3.15V7.53a10.51,10.51,0,0,1,.06-1.2,3.83,3.83,0,0,1,.6,0l1.88,0a2.18,2.18,0,0,1,.38,0,.45.45,0,0,1,.23.17.9.9,0,0,1,.05.25c0,.16.06.35.1.58a3.33,3.33,0,0,0,.14.55A6.39,6.39,0,0,0,15,9a2.91,2.91,0,0,0,.6-.15,2.77,2.77,0,0,0,0-.46l0-.51,0-2.95-.25,0-.38,0L15,4.94a.71.71,0,0,1-.18.15.45.45,0,0,1-.25.07l-.29,0H8.75l-.15,0H7.45a17,17,0,0,1-1.86,0L5.36,5l-.25-.13ZM19.75,16.14h-.69v-9h.69A.4.4,0,0,0,20.13,7c.06-.11,0-.24-.1-.39L18.92,5.15a.52.52,0,0,0-.86,0L17,6.58c-.12.15-.16.28-.1.39s.18.16.38.16h.69v9h-.69a.4.4,0,0,0-.38.16c-.06.11,0,.24.1.39l1.11,1.43a.52.52,0,0,0,.86,0L20,16.69c.12-.15.16-.28.1-.39a.4.4,0,0,0-.38-.16Z" transform="translate(-4.4 -4.86)"></path></g></svg>