<svg width="97" height="41" viewBox="0 0 97 41" fill="none" xmlns="http://www.w3.org/2000/svg">
<path d="M48 41L38.4737 26.75L57.5263 26.75L48 41Z" fill="black"/>
<rect width="97" height="31" fill="black"/>
<path d="M24.6875 22.1491C23.8849 22.1491 23.2013 21.9308 22.6367 21.494C22.0721 21.0536 21.6406 20.4162 21.3423 19.5817C21.044 18.7436 20.8949 17.7315 20.8949 16.5455C20.8949 15.3665 21.044 14.3597 21.3423 13.5252C21.6442 12.6871 22.0774 12.0479 22.642 11.6076C23.2102 11.1637 23.892 10.9418 24.6875 10.9418C25.483 10.9418 26.163 11.1637 26.7276 11.6076C27.2958 12.0479 27.729 12.6871 28.0273 13.5252C28.3292 14.3597 28.4801 15.3665 28.4801 16.5455C28.4801 17.7315 28.331 18.7436 28.0327 19.5817C27.7344 20.4162 27.3029 21.0536 26.7383 21.494C26.1737 21.9308 25.4901 22.1491 24.6875 22.1491ZM24.6875 20.9773C25.483 20.9773 26.1009 20.5937 26.5412 19.8267C26.9815 19.0597 27.2017 17.9659 27.2017 16.5455C27.2017 15.6009 27.1005 14.7965 26.8981 14.1325C26.6992 13.4684 26.4116 12.9624 26.0352 12.6143C25.6623 12.2663 25.2131 12.0923 24.6875 12.0923C23.8991 12.0923 23.283 12.4812 22.8391 13.2589C22.3952 14.033 22.1733 15.1286 22.1733 16.5455C22.1733 17.4901 22.2727 18.2926 22.4716 18.9531C22.6705 19.6136 22.9563 20.1161 23.3292 20.4606C23.7056 20.805 24.1584 20.9773 24.6875 20.9773ZM34.0625 22.1491C33.2599 22.1491 32.5763 21.9308 32.0117 21.494C31.4471 21.0536 31.0156 20.4162 30.7173 19.5817C30.419 18.7436 30.2699 17.7315 30.2699 16.5455C30.2699 15.3665 30.419 14.3597 30.7173 13.5252C31.0192 12.6871 31.4524 12.0479 32.017 11.6076C32.5852 11.1637 33.267 10.9418 34.0625 10.9418C34.858 10.9418 35.538 11.1637 36.1026 11.6076C36.6708 12.0479 37.104 12.6871 37.4023 13.5252C37.7042 14.3597 37.8551 15.3665 37.8551 16.5455C37.8551 17.7315 37.706 18.7436 37.4077 19.5817C37.1094 20.4162 36.6779 21.0536 36.1133 21.494C35.5487 21.9308 34.8651 22.1491 34.0625 22.1491ZM34.0625 20.9773C34.858 20.9773 35.4759 20.5937 35.9162 19.8267C36.3565 19.0597 36.5767 17.9659 36.5767 16.5455C36.5767 15.6009 36.4755 14.7965 36.2731 14.1325C36.0742 13.4684 35.7866 12.9624 35.4102 12.6143C35.0373 12.2663 34.5881 12.0923 34.0625 12.0923C33.2741 12.0923 32.658 12.4812 32.2141 13.2589C31.7702 14.033 31.5483 15.1286 31.5483 16.5455C31.5483 17.4901 31.6477 18.2926 31.8466 18.9531C32.0455 19.6136 32.3313 20.1161 32.7042 20.4606C33.0806 20.805 33.5334 20.9773 34.0625 20.9773ZM43.4375 22.1491C42.6349 22.1491 41.9513 21.9308 41.3867 21.494C40.8221 21.0536 40.3906 20.4162 40.0923 19.5817C39.794 18.7436 39.6449 17.7315 39.6449 16.5455C39.6449 15.3665 39.794 14.3597 40.0923 13.5252C40.3942 12.6871 40.8274 12.0479 41.392 11.6076C41.9602 11.1637 42.642 10.9418 43.4375 10.9418C44.233 10.9418 44.913 11.1637 45.4776 11.6076C46.0458 12.0479 46.479 12.6871 46.7773 13.5252C47.0792 14.3597 47.2301 15.3665 47.2301 16.5455C47.2301 17.7315 47.081 18.7436 46.7827 19.5817C46.4844 20.4162 46.0529 21.0536 45.4883 21.494C44.9237 21.9308 44.2401 22.1491 43.4375 22.1491ZM43.4375 20.9773C44.233 20.9773 44.8509 20.5937 45.2912 19.8267C45.7315 19.0597 45.9517 17.9659 45.9517 16.5455C45.9517 15.6009 45.8505 14.7965 45.6481 14.1325C45.4492 13.4684 45.1616 12.9624 44.7852 12.6143C44.4123 12.2663 43.9631 12.0923 43.4375 12.0923C42.6491 12.0923 42.033 12.4812 41.5891 13.2589C41.1452 14.033 40.9233 15.1286 40.9233 16.5455C40.9233 17.4901 41.0227 18.2926 41.2216 18.9531C41.4205 19.6136 41.7063 20.1161 42.0792 20.4606C42.4556 20.805 42.9084 20.9773 43.4375 20.9773ZM52.8125 22.1491C52.0099 22.1491 51.3263 21.9308 50.7617 21.494C50.1971 21.0536 49.7656 20.4162 49.4673 19.5817C49.169 18.7436 49.0199 17.7315 49.0199 16.5455C49.0199 15.3665 49.169 14.3597 49.4673 13.5252C49.7692 12.6871 50.2024 12.0479 50.767 11.6076C51.3352 11.1637 52.017 10.9418 52.8125 10.9418C53.608 10.9418 54.288 11.1637 54.8526 11.6076C55.4208 12.0479 55.854 12.6871 56.1523 13.5252C56.4542 14.3597 56.6051 15.3665 56.6051 16.5455C56.6051 17.7315 56.456 18.7436 56.1577 19.5817C55.8594 20.4162 55.4279 21.0536 54.8633 21.494C54.2987 21.9308 53.6151 22.1491 52.8125 22.1491ZM52.8125 20.9773C53.608 20.9773 54.2259 20.5937 54.6662 19.8267C55.1065 19.0597 55.3267 17.9659 55.3267 16.5455C55.3267 15.6009 55.2255 14.7965 55.0231 14.1325C54.8242 13.4684 54.5366 12.9624 54.1602 12.6143C53.7873 12.2663 53.3381 12.0923 52.8125 12.0923C52.0241 12.0923 51.408 12.4812 50.9641 13.2589C50.5202 14.033 50.2983 15.1286 50.2983 16.5455C50.2983 17.4901 50.3977 18.2926 50.5966 18.9531C50.7955 19.6136 51.0813 20.1161 51.4542 20.4606C51.8306 20.805 52.2834 20.9773 52.8125 20.9773ZM62.1875 22.1491C61.3849 22.1491 60.7013 21.9308 60.1367 21.494C59.5721 21.0536 59.1406 20.4162 58.8423 19.5817C58.544 18.7436 58.3949 17.7315 58.3949 16.5455C58.3949 15.3665 58.544 14.3597 58.8423 13.5252C59.1442 12.6871 59.5774 12.0479 60.142 11.6076C60.7102 11.1637 61.392 10.9418 62.1875 10.9418C62.983 10.9418 63.663 11.1637 64.2276 11.6076C64.7958 12.0479 65.229 12.6871 65.5273 13.5252C65.8292 14.3597 65.9801 15.3665 65.9801 16.5455C65.9801 17.7315 65.831 18.7436 65.5327 19.5817C65.2344 20.4162 64.8029 21.0536 64.2383 21.494C63.6737 21.9308 62.9901 22.1491 62.1875 22.1491ZM62.1875 20.9773C62.983 20.9773 63.6009 20.5937 64.0412 19.8267C64.4815 19.0597 64.7017 17.9659 64.7017 16.5455C64.7017 15.6009 64.6005 14.7965 64.3981 14.1325C64.1992 13.4684 63.9116 12.9624 63.5352 12.6143C63.1623 12.2663 62.7131 12.0923 62.1875 12.0923C61.3991 12.0923 60.783 12.4812 60.3391 13.2589C59.8952 14.033 59.6733 15.1286 59.6733 16.5455C59.6733 17.4901 59.7727 18.2926 59.9716 18.9531C60.1705 19.6136 60.4563 20.1161 60.8292 20.4606C61.2056 20.805 61.6584 20.9773 62.1875 20.9773ZM71.5625 22.1491C70.7599 22.1491 70.0763 21.9308 69.5117 21.494C68.9471 21.0536 68.5156 20.4162 68.2173 19.5817C67.919 18.7436 67.7699 17.7315 67.7699 16.5455C67.7699 15.3665 67.919 14.3597 68.2173 13.5252C68.5192 12.6871 68.9524 12.0479 69.517 11.6076C70.0852 11.1637 70.767 10.9418 71.5625 10.9418C72.358 10.9418 73.038 11.1637 73.6026 11.6076C74.1708 12.0479 74.604 12.6871 74.9023 13.5252C75.2042 14.3597 75.3551 15.3665 75.3551 16.5455C75.3551 17.7315 75.206 18.7436 74.9077 19.5817C74.6094 20.4162 74.1779 21.0536 73.6133 21.494C73.0487 21.9308 72.3651 22.1491 71.5625 22.1491ZM71.5625 20.9773C72.358 20.9773 72.9759 20.5937 73.4162 19.8267C73.8565 19.0597 74.0767 17.9659 74.0767 16.5455C74.0767 15.6009 73.9755 14.7965 73.7731 14.1325C73.5742 13.4684 73.2866 12.9624 72.9102 12.6143C72.5373 12.2663 72.0881 12.0923 71.5625 12.0923C70.7741 12.0923 70.158 12.4812 69.7141 13.2589C69.2702 14.033 69.0483 15.1286 69.0483 16.5455C69.0483 17.4901 69.1477 18.2926 69.3466 18.9531C69.5455 19.6136 69.8313 20.1161 70.2042 20.4606C70.5806 20.805 71.0334 20.9773 71.5625 20.9773Z" fill="white"/>
</svg>
