<svg width="23" height="24" viewBox="0 0 23 24" fill="none" xmlns="http://www.w3.org/2000/svg">
<path fill-rule="evenodd" clip-rule="evenodd" d="M21.4101 0H1.25022C0.559744 0 0 0.581392 0 1.29858V22.2381C0 22.9553 0.559744 23.5367 1.25022 23.5367H12.1115V14.4345H9.16179V10.8715H12.1115V8.25001C12.1115 5.21053 13.9009 3.55485 16.5108 3.55485C17.3902 3.55286 18.2692 3.59891 19.144 3.69282V6.87028H17.3468C15.9247 6.87028 15.6473 7.56826 15.6473 8.599V10.8675H19.0464L18.6049 14.4304H15.6278V23.5367H21.4101C22.1005 23.5367 22.6603 22.9553 22.6603 22.2381V1.29858C22.6603 0.581392 22.1005 0 21.4101 0Z" fill="black"/>
</svg>
