<svg width="25" height="24" viewBox="0 0 25 24" fill="none" xmlns="http://www.w3.org/2000/svg">
<path fill-rule="evenodd" clip-rule="evenodd" d="M7.64185 0.0708192C8.90288 0.0135472 9.3055 0 12.5164 0C15.7272 0 16.1298 0.0135472 17.3909 0.0708192C18.6493 0.127951 19.5087 0.326908 20.2607 0.617846C21.0382 0.918547 21.6975 1.32095 22.3548 1.97518C23.0121 2.62947 23.4163 3.28576 23.7185 4.05963C24.0107 4.80818 24.2106 5.66367 24.268 6.91627C24.3255 8.17149 24.3391 8.57225 24.3391 11.7684C24.3391 14.9644 24.3255 15.3652 24.268 16.6204C24.2106 17.873 24.0107 18.7285 23.7185 19.4771C23.4163 20.2509 23.0121 20.9072 22.3548 21.5615C21.6975 22.2157 21.0382 22.6181 20.2607 22.9189C19.5087 23.2098 18.6493 23.4087 17.3909 23.4659C16.1298 23.5231 15.7272 23.5367 12.5164 23.5367C9.3055 23.5367 8.90288 23.5231 7.64185 23.4659C6.38346 23.4087 5.52402 23.2098 4.77201 22.9189C3.99456 22.6181 3.33523 22.2157 2.67792 21.5615C2.02066 20.9072 1.6164 20.2509 1.31431 19.4771C1.02202 18.7285 0.822146 17.873 0.76475 16.6204C0.707213 15.3652 0.693604 14.9644 0.693604 11.7684C0.693604 8.57225 0.707213 8.17149 0.76475 6.91627C0.822146 5.66367 1.02202 4.80818 1.31431 4.05963C1.6164 3.28576 2.02066 2.62947 2.67792 1.97518C3.33523 1.32095 3.99456 0.918547 4.77201 0.617846C5.52402 0.326908 6.38346 0.127951 7.64185 0.0708192ZM19.4891 2.59424C19.0725 2.43308 18.4465 2.24136 17.2938 2.18904C16.0471 2.13242 15.6732 2.12042 12.5164 2.12042C9.35956 2.12042 8.98562 2.13242 7.73895 2.18904C6.58625 2.24136 5.96024 2.43308 5.54364 2.59424C4.99178 2.80773 4.59794 3.06274 4.18425 3.47458C3.77051 3.88637 3.51432 4.27839 3.29984 4.82771C3.13793 5.24239 2.94533 5.86552 2.89277 7.01292C2.83589 8.25385 2.82383 8.62607 2.82383 11.7684C2.82383 14.9106 2.83589 15.2828 2.89277 16.5238C2.94533 17.6712 3.13793 18.2943 3.29984 18.709C3.51432 19.2583 3.77056 19.6503 4.18425 20.0621C4.59794 20.4739 4.99178 20.729 5.54364 20.9424C5.96024 21.1036 6.58625 21.2953 7.73895 21.3476C8.98548 21.4043 9.35932 21.4163 12.5164 21.4163C15.6734 21.4163 16.0473 21.4043 17.2938 21.3476C18.4465 21.2953 19.0725 21.1036 19.4891 20.9424C20.0409 20.729 20.4348 20.4739 20.8485 20.0621C21.2622 19.6503 21.5184 19.2583 21.7329 18.709C21.8948 18.2943 22.0874 17.6712 22.14 16.5238C22.1968 15.2828 22.2089 14.9106 22.2089 11.7684C22.2089 8.62607 22.1968 8.25385 22.14 7.01292C22.0874 5.86552 21.8948 5.24239 21.7329 4.82771C21.5184 4.27839 21.2622 3.88637 20.8485 3.47458C20.4348 3.06274 20.0409 2.80773 19.4891 2.59424ZM12.5164 5.72514C9.16334 5.72514 6.44522 8.43075 6.44522 11.7684C6.44522 15.1059 9.16334 17.8115 12.5164 17.8115C15.8694 17.8115 18.5875 15.1059 18.5875 11.7684C18.5875 8.43075 15.8694 5.72514 12.5164 5.72514ZM8.57544 11.7684C8.57544 13.9348 10.3398 15.6911 12.5164 15.6911C14.6929 15.6911 16.4573 13.9348 16.4573 11.7684C16.4573 9.60184 14.6929 7.84556 12.5164 7.84556C10.3398 7.84556 8.57544 9.60184 8.57544 11.7684ZM18.8274 6.89856C19.6109 6.89856 20.2461 6.26633 20.2461 5.48638C20.2461 4.70644 19.6109 4.07416 18.8274 4.07416C18.0439 4.07416 17.4087 4.70644 17.4087 5.48638C17.4087 6.26633 18.0439 6.89856 18.8274 6.89856Z" fill="black"/>
</svg>
