<svg width="24" height="24" viewBox="0 0 24 24" fill="none" xmlns="http://www.w3.org/2000/svg">
<path fill-rule="evenodd" clip-rule="evenodd" d="M20.2799 20.0559H16.9197V14.5927C16.9197 13.2904 16.897 11.6154 15.1722 11.6154C13.4248 11.6154 13.1579 13.0354 13.1579 14.4999V20.0559H9.80018V8.82364H13.0206V10.3588H13.0672C13.5167 9.47613 14.612 8.54512 16.2474 8.54512C19.6517 8.54512 20.2799 10.87 20.2799 13.8958V20.0559ZM6.01066 7.28983C4.93046 7.28983 4.05925 6.38236 4.05925 5.26437C4.05925 4.14769 4.93046 3.24022 6.01066 3.24022C7.08457 3.24022 7.9583 4.14769 7.9583 5.26437C7.9583 6.38236 7.08457 7.28983 6.01066 7.28983ZM4.32615 20.0559H7.69139V8.82364H4.32615V20.0559ZM21.9531 0H2.64039C1.71882 0 0.969727 0.759712 0.969727 1.69726V21.8381C0.969727 22.7757 1.71882 23.5367 2.64039 23.5367H21.9531C22.8771 23.5367 23.63 22.7757 23.63 21.8381V1.69726C23.63 0.759712 22.8771 0 21.9531 0V0Z" fill="black"/>
</svg>
