<svg width="24" height="21" viewBox="0 0 24 21" fill="none" xmlns="http://www.w3.org/2000/svg">
<path fill-rule="evenodd" clip-rule="evenodd" d="M7.68865 20.0802C16.6113 20.0802 21.4937 12.7149 21.4937 6.33866C21.4937 6.13145 21.4937 5.92425 21.4842 5.71704C22.4304 5.03892 23.2536 4.18184 23.9065 3.21174C23.036 3.59789 22.0993 3.85219 21.1152 3.97463C22.1182 3.38127 22.8846 2.43001 23.2536 1.2998C22.3169 1.85548 21.2761 2.25106 20.169 2.46768C19.2796 1.52584 18.0211 0.941895 16.6302 0.941895C13.9525 0.941895 11.7762 3.10814 11.7762 5.77355C11.7762 6.15029 11.8235 6.51761 11.8992 6.87551C7.86843 6.67772 4.2918 4.74694 1.89791 1.82723C1.48158 2.54303 1.24503 3.37185 1.24503 4.25719C1.24503 5.93367 2.10607 7.41236 3.40237 8.27886C2.60756 8.2506 1.86006 8.03398 1.20719 7.67608C1.20719 7.69492 1.20719 7.71375 1.20719 7.74201C1.20719 10.0778 2.88196 12.0368 5.09606 12.4795C4.6892 12.5925 4.26341 12.649 3.8187 12.649C3.50645 12.649 3.20367 12.6208 2.91034 12.5642C3.52537 14.4856 5.32315 15.8795 7.44264 15.9172C5.77733 17.217 3.68623 17.9893 1.41535 17.9893C1.02741 17.9893 0.639466 17.9704 0.260986 17.9233C2.3994 19.2796 4.95414 20.0802 7.68865 20.0802" fill="black"/>
</svg>
