<svg width="25" height="17" viewBox="0 0 25 17" fill="none" xmlns="http://www.w3.org/2000/svg">
<path d="M24.2366 3.67999C24.2366 3.67999 24.0057 2.05832 23.2979 1.3428C22.3986 0.406041 21.3905 0.401334 20.9286 0.345631C17.6191 0.10791 12.6511 0.10791 12.6511 0.10791C12.6511 0.10791 7.68242 0.10791 4.37362 0.346415C3.91175 0.401334 2.90366 0.406041 2.00434 1.34359C1.29497 2.05832 1.06482 3.67999 1.06482 3.67999C1.06482 3.67999 0.828369 5.2648 0.828369 7.16891V9.52337C0.828369 11.4275 1.06482 13.0845 1.06482 13.0845C1.06482 13.0845 1.29497 14.7054 2.00434 15.4201C2.90366 16.3576 4.08515 16.3286 4.61165 16.4267C6.50329 16.6071 12.6511 16.5844 12.6511 16.5844C12.6511 16.5844 17.6191 16.655 20.9286 16.4173C21.3905 16.3623 22.3986 16.3576 23.2979 15.4201C24.0057 14.7061 24.2366 13.0845 24.2366 13.0845C24.2366 13.0845 24.4739 11.4283 24.4739 9.52415V7.1697C24.4739 5.2648 24.2366 3.67999 24.2366 3.67999ZM9.49839 11.4895V5.21302L15.8039 8.35124L9.49839 11.4895Z" fill="black"/>
</svg>
