<svg xmlns="http://www.w3.org/2000/svg" xmlns:xlink="http://www.w3.org/1999/xlink" version="1.1" id="Layer_1" x="0px" y="0px" width="100%" viewBox="0 0 1280 616" enable-background="new 0 0 1280 616" xml:space="preserve">
<path fill="#FDFDFD" opacity="1.000000" stroke="none" d=" M1281.000000,17.000000   C1281.000000,132.691574 1281.000000,248.383133 1280.628174,364.542175   C1278.202026,366.787872 1276.147583,368.566101 1274.093262,370.344330   C1276.395508,371.562897 1278.697754,372.781433 1281.000000,374.000000   C1281.000000,379.691650 1281.000000,385.383301 1280.632324,391.468384   C1279.033203,388.324677 1277.801758,384.787537 1276.279663,380.415497   C1275.212280,382.561584 1274.606079,383.780243 1273.712524,384.722107   C1272.266113,376.000305 1272.266113,376.000061 1263.433716,376.000061   C1130.450684,376.000000 997.467529,376.000000 864.484436,376.000000   C857.904846,376.000000 851.323608,376.091797 844.746277,375.969971   C839.815674,375.878632 837.707581,378.226746 837.593140,383.006470   C832.916870,382.903778 833.036072,385.996277 833.014893,388.869873   C832.966431,395.447968 833.000000,402.026672 833.000000,408.605133   C833.000061,434.095032 832.877319,459.585632 833.029358,485.074615   C833.245728,521.351990 833.658630,557.628296 834.001709,593.904907   C834.049805,598.991028 837.318726,604.402527 840.867920,604.919983   C844.626404,605.467896 848.437012,605.957581 852.225037,605.958984   C988.171082,606.010864 1124.117188,606.002502 1260.063232,606.002258   C1261.395996,606.002258 1262.762451,606.190613 1264.055664,605.963867   C1268.910522,605.112488 1274.644043,605.060913 1276.303101,599.217957   C1277.807129,593.921204 1278.824463,588.301880 1278.885742,582.811707   C1279.155151,558.657593 1279.044678,534.498657 1278.955933,510.341888   C1278.941406,506.385040 1278.044922,502.427032 1278.088135,498.475372   C1278.156128,492.262848 1278.935791,486.056305 1278.960083,479.845459   C1279.065063,453.023193 1278.966675,426.200073 1279.090576,399.377960   C1279.098877,397.582428 1280.334961,395.792542 1281.000000,394.000000   C1281.000000,468.318268 1281.000000,542.636536 1281.000000,616.977417   C854.434937,616.977417 427.869904,616.977417 1.000000,616.977417   C1.000000,419.308533 1.000000,221.616898 1.347700,23.424103   C8.972836,14.704112 18.460419,13.881630 28.722277,13.894057   C161.036224,14.054282 293.350403,14.005131 425.664551,13.965399   C428.458008,13.964560 431.246338,13.332166 434.046478,13.208966   C436.008087,13.122661 438.060364,13.102599 439.943176,13.571149   C447.331146,15.409688 455.022339,16.919132 457.640656,26.828615   C458.806854,24.879032 459.645905,24.104074 459.703186,23.275093   C459.997437,19.016678 462.672058,17.039692 466.204559,15.311430   C472.819489,12.075088 479.694885,11.888237 486.894989,11.898353   C592.212830,12.046309 697.530945,11.981647 802.848999,12.032264   C812.039856,12.036680 820.616699,13.731056 825.632263,22.842873   C825.979980,23.474525 827.249329,23.598875 828.274292,24.038088   C830.208252,16.995148 836.108215,15.439711 841.500732,12.747150   C846.700623,10.150806 851.595886,12.064128 856.586548,12.060560   C967.237122,11.981465 1077.887695,12.000036 1188.538330,12.000039   C1214.701172,12.000039 1240.864136,11.972445 1267.026611,12.058733   C1268.880859,12.064847 1271.728149,12.324668 1272.400513,13.471136   C1274.531250,17.104973 1277.584106,17.200991 1281.000000,17.000000  M817.798828,600.985474   C822.088501,599.956604 820.957397,596.422974 820.960205,593.666565   C821.019348,535.126282 821.007263,476.585907 821.007141,418.045532   C821.007019,289.321381 821.005859,160.597198 821.004761,31.873037   C821.004700,30.540852 821.389099,29.032722 820.889282,27.924614   C820.359802,26.750828 818.987244,25.957340 817.455688,24.565130   C815.458069,20.312170 812.119812,18.928892 807.458252,18.932608   C698.063232,19.019806 588.668213,19.022018 479.273224,18.926004   C474.556702,18.921864 470.390717,19.517735 466.221008,23.014488   C461.166779,24.229191 462.067322,28.462677 462.058807,31.872608   C461.965515,69.272362 462.001007,106.672432 462.000946,144.072418   C462.000824,221.623291 462.113556,299.174408 461.956177,376.724945   C461.866333,420.999054 461.252197,465.271912 461.061340,509.546143   C461.011993,520.997742 461.843781,532.450562 461.958130,543.906006   C462.122772,560.397827 462.100616,576.893555 461.941895,593.385498   C461.893890,598.374207 463.865356,601.894409 468.346405,603.571106   C471.690979,604.822571 475.353271,605.900269 478.875305,605.904175   C587.998840,606.024353 697.122559,606.002563 806.246216,606.001831   C807.412354,606.001831 808.812622,606.407776 809.700378,605.908020   C812.248718,604.473511 814.589661,602.670410 817.798828,600.985474  M446.696930,24.385685   C444.536926,20.176662 440.956238,18.958042 436.421539,18.959675   C298.143738,19.009420 159.865921,19.004936 21.588106,18.982456   C16.238359,18.981586 12.381725,21.195879 9.249896,26.129948   C8.497675,28.682625 7.088322,31.234940 7.086911,33.788033   C6.984230,219.599808 6.992771,405.411621 6.994867,591.223450   C6.994970,600.333191 14.665539,606.473083 23.629137,604.680603   C25.884951,604.229614 28.228973,604.034424 30.532528,604.033875   C162.517242,604.004089 294.501984,604.002991 426.486694,604.040466   C428.948334,604.041138 431.432495,604.407532 433.866852,604.829773   C439.315887,605.774963 446.224609,603.981812 447.721283,600.224792   C449.653046,595.375610 451.738464,590.154724 451.797546,585.071167   C451.998352,567.788147 451.122314,550.495667 451.076385,533.205688   C451.042847,520.583557 451.994232,507.958374 451.942200,495.336884   C451.763733,452.050140 451.284332,408.764709 451.056366,365.478058   C451.018829,358.356415 451.951050,351.231415 451.957764,344.107513   C452.028198,269.533905 452.001068,194.960236 452.001312,120.386574   C452.001404,92.556465 452.036285,64.726250 451.953369,36.896385   C451.944580,33.944534 451.587311,30.889442 450.718994,28.090992   C450.319550,26.803499 448.293396,26.020737 446.696930,24.385685  M837.227661,26.015247   C833.200745,26.437241 833.437439,29.668224 833.333862,32.359070   C833.239563,34.809380 833.963440,37.282917 833.964294,39.746346   C833.999390,141.904175 833.993286,244.062012 833.993591,346.219849   C833.993591,347.719635 833.894104,349.230011 834.033447,350.717407   C834.715332,357.996552 837.325317,361.576019 843.414917,362.839111   C846.959534,363.574341 850.643250,363.957428 854.264526,363.958862   C990.419434,364.013367 1126.574341,364.004852 1262.729248,364.004730   C1263.729126,364.004730 1264.730713,364.040802 1265.728760,363.997040   C1273.504272,363.656067 1278.726562,356.964142 1277.325928,349.334229   C1276.969482,347.392426 1277.021484,345.360870 1277.021240,343.370544   C1277.008179,239.712845 1277.009644,136.055130 1277.009155,32.397427   C1277.009155,30.897572 1277.388916,29.248516 1276.884399,27.942162   C1276.431030,26.768589 1275.003052,25.971523 1273.705933,24.325882   C1272.543213,22.899660 1271.606201,20.588877 1270.172852,20.222820   C1266.691895,19.333908 1262.980347,19.045374 1259.361450,19.044003   C1122.334229,18.992109 985.307007,19.043343 848.280090,18.850971   C842.456604,18.842794 839.112610,20.284092 837.227661,26.015247  M831.008545,375.533691   C833.687317,373.800964 836.366089,372.068237 839.591125,369.982147   C835.194214,367.112335 831.558411,364.739227 827.398560,362.024139   C827.398560,367.841644 827.398560,373.132965 827.398560,379.823212   C829.003967,377.915161 829.767151,377.008118 831.008545,375.533691  z"/>
<path fill="#FFFFFF" opacity="1.000000" stroke="none" d=" M1281.000000,16.528801   C1277.584106,17.200991 1274.531250,17.104973 1272.400513,13.471136   C1271.728149,12.324668 1268.880859,12.064847 1267.026611,12.058733   C1240.864136,11.972445 1214.701172,12.000039 1188.538330,12.000039   C1077.887695,12.000036 967.237122,11.981465 856.586548,12.060560   C851.595886,12.064128 846.700623,10.150806 841.500732,12.747150   C836.108215,15.439711 830.208252,16.995148 828.274292,24.038088   C827.249329,23.598875 825.979980,23.474525 825.632263,22.842873   C820.616699,13.731056 812.039856,12.036680 802.848999,12.032264   C697.530945,11.981647 592.212830,12.046309 486.894989,11.898353   C479.694885,11.888237 472.819489,12.075088 466.204559,15.311430   C462.672058,17.039692 459.997437,19.016678 459.703186,23.275093   C459.645905,24.104074 458.806854,24.879032 457.640656,26.828615   C455.022339,16.919132 447.331146,15.409688 439.943176,13.571149   C438.060364,13.102599 436.008087,13.122661 434.046478,13.208966   C431.246338,13.332166 428.458008,13.964560 425.664551,13.965399   C293.350403,14.005131 161.036224,14.054282 28.722277,13.894057   C18.460419,13.881630 8.972836,14.704112 1.347700,22.961464   C1.000000,15.669128 1.000000,8.338258 1.000000,1.031341   C427.666656,1.031341 854.333313,1.031341 1281.000000,1.031341   C1281.000000,6.060989 1281.000000,11.059297 1281.000000,16.528801  z"/>
<path fill="#F2F2F2" opacity="1.000000" stroke="none" d=" M1281.000000,393.666687   C1280.334961,395.792542 1279.098877,397.582428 1279.090576,399.377960   C1278.966675,426.200073 1279.065063,453.023193 1278.960083,479.845459   C1278.935791,486.056305 1278.156128,492.262848 1278.088135,498.475372   C1278.044922,502.427032 1278.941406,506.385040 1278.955933,510.341888   C1279.044678,534.498657 1279.155151,558.657593 1278.885742,582.811707   C1278.824463,588.301880 1277.807129,593.921204 1276.303101,599.217957   C1274.644043,605.060913 1268.910522,605.112488 1264.055664,605.963867   C1262.762451,606.190613 1261.395996,606.002258 1260.063232,606.002258   C1124.117188,606.002502 988.171082,606.010864 852.225037,605.958984   C848.437012,605.957581 844.626404,605.467896 840.867920,604.919983   C837.318726,604.402527 834.049805,598.991028 834.001709,593.904907   C833.658630,557.628296 833.245728,521.351990 833.029358,485.074615   C832.877319,459.585632 833.000061,434.095032 833.000000,408.605133   C833.000000,402.026672 832.966431,395.447968 833.014893,388.869873   C833.036072,385.996277 832.916870,382.903778 837.593018,383.463165   C837.666199,389.700958 837.058472,395.480957 837.051941,401.261597   C836.982544,462.474426 837.051392,523.687439 836.924622,584.900085   C836.914917,589.588440 837.328003,593.741516 840.628479,597.018433   C837.637817,597.330933 837.389465,598.917053 839.131714,600.255188   C840.838684,601.566101 843.096497,602.719421 845.186401,602.862549   C850.494873,603.226135 855.844727,602.986694 861.177979,602.986694   C994.843262,602.987183 1128.508545,603.005920 1262.173706,602.872070   C1265.264771,602.868958 1268.463745,601.400208 1271.408081,600.138550   C1273.588013,599.204285 1273.660278,597.737732 1271.062988,596.648315   C1272.080688,593.428101 1273.855957,590.574646 1273.874634,587.709778   C1274.075684,556.834839 1274.000000,525.958069 1274.003784,494.720947   C1274.005005,493.879883 1274.002563,493.399719 1273.998535,492.455933   C1273.997925,456.327881 1273.999023,420.663391 1274.000000,384.998901   C1274.606079,383.780243 1275.212280,382.561584 1276.279663,380.415497   C1277.801758,384.787537 1279.033203,388.324677 1280.632324,391.930908   C1281.000000,392.444458 1281.000000,392.888885 1281.000000,393.666687  z"/>
<path fill="#FFFFFF" opacity="1.000000" stroke="none" d=" M1281.000000,373.550018   C1278.697754,372.781433 1276.395508,371.562897 1274.093262,370.344330   C1276.147583,368.566101 1278.202026,366.787872 1280.628174,365.004822   C1281.000000,367.700012 1281.000000,370.400024 1281.000000,373.550018  z"/>
<path fill="#FFFFFF" opacity="1.000000" stroke="none" d=" M837.995117,26.010891   C839.112610,20.284092 842.456604,18.842794 848.280090,18.850971   C985.307007,19.043343 1122.334229,18.992109 1259.361450,19.044003   C1262.980347,19.045374 1266.691895,19.333908 1270.172852,20.222820   C1271.606201,20.588877 1272.543213,22.899660 1273.855469,25.134838   C1274.003174,132.263062 1273.986450,238.582352 1274.061157,344.901581   C1274.063843,348.722412 1273.954590,352.243469 1270.558594,355.045715   C1251.656982,355.348785 1233.201416,355.871979 1214.744507,355.921539   C1167.596313,356.048187 1120.447021,356.080292 1073.298950,355.937439   C995.198242,355.700775 917.097961,355.297180 838.927734,354.585693   C838.241882,352.234161 837.083069,350.259613 837.087524,348.287659   C837.328247,240.861938 837.666687,133.436417 837.995117,26.010891  M946.500000,97.985298   C918.673645,97.983528 890.846313,98.095840 863.021729,97.870827   C858.228821,97.832069 856.889465,99.123375 856.910339,103.951561   C857.096375,147.106766 857.018921,190.263123 857.022583,233.419128   C857.023132,239.966370 857.031738,239.973282 863.764343,239.973221   C991.066223,239.972153 1118.368164,239.942047 1245.669922,240.071060   C1250.546997,240.076004 1252.160522,239.133301 1252.131104,233.848434   C1251.889893,190.693771 1251.995605,147.537170 1251.994507,104.381149   C1251.994385,97.989304 1251.990967,97.985786 1245.426514,97.985733   C1146.117676,97.984985 1046.808838,97.985229 946.500000,97.985298  M1134.281494,40.038788   C1050.815308,40.038315 967.349182,40.019089 883.883118,40.093536   C879.772278,40.097202 875.415833,40.197315 871.600281,41.500908   C862.065674,44.758377 854.813599,57.790501 857.200928,67.330772   C859.414124,76.175262 868.713989,85.186028 879.536621,85.131943   C940.343750,84.828056 1001.153259,84.984688 1061.961914,84.983528   C1087.118408,84.983047 1112.274902,85.029221 1137.431274,84.959267   C1150.074829,84.924103 1160.895752,71.683685 1158.336792,59.586029   C1155.618774,46.736729 1149.132568,41.251976 1134.281494,40.038788  M1028.500000,315.021088   C974.349915,315.021393 920.199768,315.016998 866.049683,315.027191   C858.109497,315.028656 854.659119,318.368805 855.000977,325.614929   C855.268677,331.290100 859.064270,333.982880 866.788696,333.982605   C980.753967,333.978668 1094.719238,333.975189 1208.684570,333.971313   C1210.017456,333.971252 1211.360596,334.073547 1212.681396,333.945679   C1217.188965,333.509186 1220.931396,329.408875 1220.970581,324.961395   C1221.029053,318.322052 1217.087769,315.030792 1208.945312,315.029297   C1149.130249,315.018311 1089.315063,315.022034 1028.500000,315.021088  M1090.469849,271.034119   C1092.968262,271.030975 1095.467773,271.071167 1097.964966,271.016022   C1103.747925,270.888428 1106.770996,268.066132 1107.004883,262.642242   C1107.241333,257.163849 1104.139526,253.559265 1098.635498,253.049759   C1096.983276,252.896820 1095.306396,253.002411 1093.640869,253.002380   C1020.852234,253.001083 948.063660,253.001205 875.275024,253.001343   C872.276855,253.001343 869.047791,252.301147 866.342224,253.191345   C863.326355,254.183624 860.044250,256.070404 858.199036,258.550629   C854.693909,263.261963 860.212830,271.310791 867.616638,271.271576   C941.569092,270.880066 1015.524475,271.034088 1090.469849,271.034119  M978.467896,284.020630   C962.487122,284.020691 946.506348,284.020935 930.525574,284.020782   C909.384399,284.020569 888.242920,284.083344 867.102356,283.970459   C862.431213,283.945465 859.759766,286.093903 857.877258,290.136261   C856.028076,294.106995 856.954041,297.886261 859.975708,299.987183   C862.713257,301.890564 866.671387,302.814423 870.098083,302.831665   C908.051392,303.022675 946.005981,302.952728 983.960266,302.952850   C984.792603,302.952850 985.629395,303.002869 986.456482,302.935455   C992.324463,302.457123 996.061584,298.488190 995.969849,292.863129   C995.887390,287.806519 991.720825,284.120605 985.944458,284.027466   C983.781006,283.992554 981.616455,284.023285 978.467896,284.020630  z"/>
<path fill="#FFFFFF" opacity="1.000000" stroke="none" d=" M10.004484,25.985155   C12.381725,21.195879 16.238359,18.981586 21.588106,18.982456   C159.865921,19.004936 298.143738,19.009420 436.421539,18.959675   C440.956238,18.958042 444.536926,20.176662 446.850891,25.165009   C447.003662,135.944016 447.002441,245.943680 446.535522,355.958984   C438.777435,355.666779 431.485168,355.093689 424.192596,355.090546   C297.083527,355.035889 169.974380,355.029297 42.865307,355.092010   C32.575562,355.097076 22.286102,355.681580 11.750196,355.993408   C11.503882,355.989990 11.011207,355.990540 10.758802,355.985138   C10.338095,355.978363 10.169792,355.977020 10.004505,355.522949   C10.006510,245.375244 10.005497,135.680191 10.004484,25.985155  M33.973625,176.500000   C33.973255,202.994736 34.089443,229.490479 33.864494,255.983307   C33.824257,260.722534 35.009167,262.156189 39.897614,262.151031   C166.206680,262.017792 292.515961,262.010193 418.824982,262.166199   C424.004883,262.172577 425.125336,260.726044 425.113403,255.753006   C424.948456,186.933212 424.951141,118.112778 425.114258,49.292969   C425.125977,44.356762 424.071594,42.859482 418.849854,42.866150   C292.540833,43.027443 166.231537,43.018440 39.922459,42.886555   C35.067291,42.881489 33.843723,44.259918 33.864468,49.024616   C34.048016,91.182434 33.972519,133.341385 33.973625,176.500000  M257.542175,286.979126   C255.375565,286.981140 253.208771,286.965027 251.042389,286.988159   C237.394562,287.133820 227.337982,302.704712 230.711411,313.733704   C233.888123,324.119568 241.185715,331.066803 254.183548,331.040802   C303.680695,330.941772 353.178223,330.981049 402.675507,331.029846   C409.578674,331.036652 414.992035,328.673431 419.502991,323.205750   C425.464172,315.980255 426.419373,308.317841 422.954529,299.974579   C419.311340,291.201904 412.415771,287.015503 403.022186,287.008575   C354.858093,286.973022 306.694031,286.984711 257.542175,286.979126  M71.500000,314.996338   C61.842899,314.997101 52.185062,314.926453 42.528980,315.026001   C36.946804,315.083557 34.069275,318.199799 33.992039,323.872986   C33.927578,328.607697 37.893726,332.984375 42.589466,332.988129   C88.876755,333.024933 135.164154,333.030273 181.451172,332.912140   C183.433502,332.907074 185.786102,332.071136 187.318237,330.825348   C190.927963,327.890259 190.490417,323.931091 189.146179,319.920166   C187.782516,315.851227 184.651459,314.991058 180.892303,314.992157   C144.761536,315.002777 108.630768,314.997223 71.500000,314.996338  M122.492264,285.027771   C96.495972,285.026398 70.499687,285.025238 44.503395,285.023438   C38.428158,285.023041 34.162907,288.567017 34.000084,293.753113   C33.807255,299.894928 37.643616,303.710846 44.333843,303.934845   C46.997169,304.024048 49.665932,303.951385 52.332218,303.951385   C79.328384,303.951233 106.324623,303.986176 133.320648,303.925323   C139.920853,303.910461 143.896500,300.257294 143.955887,294.564789   C144.015381,288.862976 140.038940,285.202087 133.485703,285.037323   C130.154999,284.953583 126.820366,285.026001 122.492264,285.027771  z"/>
<path fill="#FFFFFF" opacity="1.000000" stroke="none" d=" M1274.000000,495.081848   C1274.000000,525.958069 1274.075684,556.834839 1273.874634,587.709778   C1273.855957,590.574646 1272.080688,593.428101 1270.593750,596.657043   C1127.042725,597.020569 984.018921,597.013977 840.995117,597.007324   C837.328003,593.741516 836.914917,589.588440 836.924622,584.900085   C837.051392,523.687439 836.982544,462.474426 837.051941,401.261597   C837.058472,395.480957 837.666199,389.700958 837.994995,383.463989   C837.707581,378.226746 839.815674,375.878632 844.746277,375.969971   C851.323608,376.091797 857.904846,376.000000 864.484436,376.000000   C997.467529,376.000000 1130.450684,376.000000 1263.433716,376.000061   C1272.266113,376.000061 1272.266113,376.000305 1273.712646,384.722137   C1273.999023,420.663391 1273.997925,456.327881 1273.530029,492.477844   C1197.050781,492.960571 1121.038086,492.957825 1044.976318,492.646057   C1044.315918,491.875824 1043.704956,491.414581 1043.132690,490.541687   C1043.436279,488.169037 1043.928345,486.208466 1043.931763,484.247040   C1043.981934,455.613678 1043.857056,426.979309 1044.078003,398.347565   C1044.113770,393.718170 1042.539673,392.932648 1038.348022,392.941864   C978.584290,393.073456 918.820251,393.036530 858.697327,393.215698   C857.893860,395.078369 857.083008,396.761505 857.064453,398.453369   C856.947388,409.101562 857.007141,419.751709 857.007202,430.401184   C857.007507,478.157440 856.985535,525.913757 857.094238,573.669800   C857.098206,575.429138 858.378662,577.185547 859.528809,578.950562   C919.327332,578.959412 978.661194,578.960999 1038.228760,579.239441   C1039.982422,579.024231 1041.502686,578.532227 1043.031738,577.592896   C1043.345581,550.431763 1043.650513,523.718079 1044.206543,496.846008   C1044.648315,496.141998 1044.839111,495.596344 1045.496582,495.044067   C1121.975586,495.052246 1197.987793,495.067047 1274.000000,495.081848  M1063.104858,529.792664   C1054.302368,546.302795 1064.769531,563.879272 1082.306519,563.929199   C1131.788696,564.070068 1181.271484,564.002319 1230.754028,563.954163   C1239.999634,563.945190 1248.983643,557.330688 1251.973389,548.542175   C1256.090088,536.440552 1248.412842,518.833435 1228.132935,518.941589   C1179.818115,519.199280 1131.500732,519.005554 1083.184448,519.032410   C1074.937988,519.036987 1068.005371,521.782837 1063.104858,529.792664  M1076.736328,414.966522   C1121.039917,414.966797 1165.343506,414.967255 1209.647095,414.967224   C1218.807617,414.967224 1227.968628,415.025482 1237.128540,414.945312   C1244.155762,414.883820 1248.068237,411.126190 1247.978027,404.763062   C1247.891602,398.664124 1244.694824,396.026031 1237.325317,396.021912   C1209.510986,396.006378 1181.696777,395.996399 1153.882446,395.992889   C1127.400635,395.989532 1100.918701,396.024414 1074.436890,395.972168   C1070.006348,395.963409 1066.680786,397.432526 1064.940674,401.707672   C1062.559570,407.557922 1065.956299,415.532227 1076.736328,414.966522  M1114.500000,472.984955   C1144.474731,472.983032 1174.449463,472.992401 1204.424194,472.970612   C1211.338501,472.965576 1215.049438,469.537720 1215.014526,463.336761   C1214.981567,457.486664 1211.182617,454.064758 1204.578125,454.038239   C1195.752441,454.002808 1186.926392,454.025787 1178.100586,454.025421   C1143.796143,454.023956 1109.491821,454.044556 1075.187378,453.990875   C1071.513184,453.985138 1068.355469,454.487152 1066.052490,457.840820   C1063.576782,461.445953 1063.398560,465.595398 1065.706055,468.517914   C1067.559570,470.865601 1071.471924,472.678009 1074.539795,472.787109   C1087.512451,473.248413 1100.510986,472.983978 1114.500000,472.984955  M1071.707397,424.901398   C1066.667358,426.480316 1063.566040,430.404297 1064.103149,434.522919   C1064.769165,439.629883 1068.585083,442.991821 1074.078369,443.000458   C1100.735840,443.042297 1127.393311,443.020813 1154.050781,443.018036   C1160.548462,443.017334 1167.055542,443.211426 1173.540527,442.920685   C1177.859863,442.727081 1181.035278,440.308197 1181.915405,435.906433   C1182.966309,430.651276 1181.198730,427.077026 1176.668213,425.437103   C1174.227905,424.553802 1171.496094,424.103699 1168.894043,424.096130   C1138.571411,424.007599 1108.248413,424.029175 1077.925537,424.070374   C1076.125610,424.072845 1074.326050,424.490997 1071.707397,424.901398  z"/>
<path fill="#FFFFFF" opacity="1.000000" stroke="none" d=" M467.000000,23.000000   C470.390717,19.517735 474.556702,18.921864 479.273224,18.926004   C588.668213,19.022018 698.063232,19.019806 807.458252,18.932608   C812.119812,18.928892 815.458069,20.312170 817.723816,25.250345   C817.658875,62.976387 817.325867,100.017220 816.607910,137.216049   C814.595276,137.590439 812.967468,137.995956 811.339600,137.996231   C696.893066,138.015472 582.446533,138.002365 467.838074,137.618530   C467.456421,134.163879 467.236694,131.082642 467.410950,127.907440   C468.202942,126.642830 468.946198,125.472893 468.948608,124.301414   C469.012329,93.494781 469.023590,62.687904 468.915466,31.881508   C468.910919,30.585150 467.672974,29.293121 467.006653,27.582497   C467.002441,25.777281 467.001221,24.388639 467.000000,23.000000  M791.632385,48.820347   C778.806458,39.885315 764.964478,38.880657 751.700500,46.428928   C729.556458,59.030678 727.577393,87.711479 744.272644,104.166504   C761.054993,120.707298 795.491150,117.435623 804.401978,88.989433   C809.340515,73.223686 804.237122,60.017464 791.632385,48.820347  M687.497925,54.006424   C626.008118,54.006828 564.518311,53.998634 503.028534,54.041298   C500.736450,54.042889 498.357178,54.237415 496.171539,54.870300   C492.009247,56.075550 489.797821,59.082123 490.136383,63.453480   C490.433136,67.285088 494.731171,70.986855 498.712921,70.988274   C566.201721,71.012268 633.690491,71.014534 701.179321,70.982628   C706.401672,70.980156 709.037231,67.930939 709.032349,62.319408   C709.027466,56.722095 706.538147,54.107712 700.994324,54.020153   C696.829407,53.954376 692.662537,54.006695 687.497925,54.006424  M564.500000,100.988197   C585.481812,100.986588 606.463684,100.989639 627.445496,100.980621   C634.019348,100.977791 637.010864,98.295547 637.012207,92.453346   C637.013489,86.472458 634.246399,83.988945 627.438049,83.986641   C584.974792,83.972260 542.511597,83.969208 500.048340,83.977448   C493.525787,83.978714 490.167206,86.639648 490.039612,91.794327   C489.909424,97.052002 494.155975,100.978943 500.054901,100.982658   C521.203247,100.995995 542.351624,100.988060 564.500000,100.988197  z"/>
<path fill="#F2F2F2" opacity="1.000000" stroke="none" d=" M9.627190,26.057552   C10.005497,135.680191 10.006510,245.375244 9.912136,355.784119   C10.211433,357.332367 10.606115,358.166779 10.998260,359.469757   C11.000167,409.980255 11.004609,460.022186 11.007246,510.452515   C11.019188,511.879639 11.032934,512.918457 10.777538,514.207153   C10.669878,517.909119 10.963648,521.360840 10.971134,524.813171   C11.015937,545.474854 11.167525,566.139099 10.873158,586.796692   C10.800481,591.897034 11.749819,595.464600 17.075764,597.313599   C19.301001,598.155884 21.449116,598.965454 23.597576,598.966370   C160.477493,599.025696 297.357422,599.019165 434.237366,599.017517   C435.735962,599.017517 437.293213,599.246948 438.711548,598.905701   C439.584564,598.695740 440.245453,597.603882 441.234131,596.653564   C445.352051,595.041199 447.074310,592.431885 447.053497,588.195190   C446.944305,565.981873 447.004486,543.767761 447.001892,521.553894   C447.001587,519.025085 446.976654,516.496338 446.977234,513.586426   C446.993713,512.438843 446.996063,511.672333 446.997070,510.443054   C446.996704,459.648804 446.997742,409.317261 447.005981,358.606140   C447.009216,357.465485 447.005219,356.704407 447.001221,355.943359   C447.002441,245.943680 447.003662,135.944016 447.004883,25.476723   C448.293396,26.020737 450.319550,26.803499 450.718994,28.090992   C451.587311,30.889442 451.944580,33.944534 451.953369,36.896385   C452.036285,64.726250 452.001404,92.556465 452.001312,120.386574   C452.001068,194.960236 452.028198,269.533905 451.957764,344.107513   C451.951050,351.231415 451.018829,358.356415 451.056366,365.478058   C451.284332,408.764709 451.763733,452.050140 451.942200,495.336884   C451.994232,507.958374 451.042847,520.583557 451.076385,533.205688   C451.122314,550.495667 451.998352,567.788147 451.797546,585.071167   C451.738464,590.154724 449.653046,595.375610 447.721283,600.224792   C446.224609,603.981812 439.315887,605.774963 433.866852,604.829773   C431.432495,604.407532 428.948334,604.041138 426.486694,604.040466   C294.501984,604.002991 162.517242,604.004089 30.532528,604.033875   C28.228973,604.034424 25.884951,604.229614 23.629137,604.680603   C14.665539,606.473083 6.994970,600.333191 6.994867,591.223450   C6.992771,405.411621 6.984230,219.599808 7.086911,33.788033   C7.088322,31.234940 8.497675,28.682625 9.627190,26.057552  z"/>
<path fill="#F2F2F2" opacity="1.000000" stroke="none" d=" M467.016968,128.001404   C467.236694,131.082642 467.456421,134.163879 467.837769,137.984055   C468.003967,139.453583 468.008545,140.184174 468.006409,141.387970   C467.667664,148.480438 467.051727,155.099503 467.046661,161.719025   C466.981598,246.978882 467.019135,332.238800 466.959381,417.498688   C466.956299,421.908020 466.367065,426.277222 472.566681,426.806335   C472.656403,426.813965 472.671753,427.693787 472.760712,428.534119   C471.165314,428.613495 469.691406,428.686859 467.003662,428.820618   C467.003662,438.745453 467.003632,448.351990 467.003632,457.958527   C467.003632,498.090637 466.928558,538.223083 467.090271,578.354492   C467.112732,583.931580 468.303253,589.503967 468.659851,595.199219   C465.936432,596.341675 465.814423,597.638428 467.868622,599.246643   C470.904327,601.623291 473.973297,603.106323 478.189972,603.100647   C583.946350,602.956726 689.703003,603.026428 795.459412,602.900146   C802.629089,602.891602 809.797241,601.639954 816.977539,600.977722   C816.988953,600.989014 817.012207,601.012207 817.012207,601.012207   C814.589661,602.670410 812.248718,604.473511 809.700378,605.908020   C808.812622,606.407776 807.412354,606.001831 806.246216,606.001831   C697.122559,606.002563 587.998840,606.024353 478.875305,605.904175   C475.353271,605.900269 471.690979,604.822571 468.346405,603.571106   C463.865356,601.894409 461.893890,598.374207 461.941895,593.385498   C462.100616,576.893555 462.122772,560.397827 461.958130,543.906006   C461.843781,532.450562 461.011993,520.997742 461.061340,509.546143   C461.252197,465.271912 461.866333,420.999054 461.956177,376.724945   C462.113556,299.174408 462.000824,221.623291 462.000946,144.072418   C462.001007,106.672432 461.965515,69.272362 462.058807,31.872608   C462.067322,28.462677 461.166779,24.229191 466.610504,23.007244   C467.001221,24.388639 467.002441,25.777281 467.003540,28.051220   C467.007935,61.958149 467.012451,94.979774 467.016968,128.001404  z"/>
<path fill="#F2F2F2" opacity="1.000000" stroke="none" d=" M1271.004150,355.050171   C1273.954590,352.243469 1274.063843,348.722412 1274.061157,344.901581   C1273.986450,238.582352 1274.003174,132.263062 1274.004883,25.476082   C1275.003052,25.971523 1276.431030,26.768589 1276.884399,27.942162   C1277.388916,29.248516 1277.009155,30.897572 1277.009155,32.397427   C1277.009644,136.055130 1277.008179,239.712845 1277.021240,343.370544   C1277.021484,345.360870 1276.969482,347.392426 1277.325928,349.334229   C1278.726562,356.964142 1273.504272,363.656067 1265.728760,363.997040   C1264.730713,364.040802 1263.729126,364.004730 1262.729248,364.004730   C1126.574341,364.004852 990.419434,364.013367 854.264526,363.958862   C850.643250,363.957428 846.959534,363.574341 843.414917,362.839111   C837.325317,361.576019 834.715332,357.996552 834.033447,350.717407   C833.894104,349.230011 833.993591,347.719635 833.993591,346.219849   C833.993286,244.062012 833.999390,141.904175 833.964294,39.746346   C833.963440,37.282917 833.239563,34.809380 833.333862,32.359070   C833.437439,29.668224 833.200745,26.437241 837.611389,26.013069   C837.666687,133.436417 837.328247,240.861938 837.087524,348.287659   C837.083069,350.259613 838.241882,352.234161 838.940063,354.974426   C840.055481,360.471863 843.749207,360.009766 847.259155,360.009552   C986.056946,360.000427 1124.854736,360.014587 1263.652466,359.911133   C1266.709839,359.908844 1269.766113,358.577515 1273.390137,357.734131   C1272.089478,356.271057 1271.546753,355.660614 1271.004150,355.050171  z"/>
<path fill="#F2F2F2" opacity="1.000000" stroke="none" d=" M816.992798,137.058044   C817.325867,100.017220 817.658875,62.976387 817.987427,25.466663   C818.987244,25.957340 820.359802,26.750828 820.889282,27.924614   C821.389099,29.032722 821.004700,30.540852 821.004761,31.873037   C821.005859,160.597198 821.007019,289.321381 821.007141,418.045532   C821.007263,476.585907 821.019348,535.126282 820.960205,593.666565   C820.957397,596.422974 822.088501,599.956604 817.405518,600.998840   C817.012207,601.012207 816.988953,600.989014 816.980957,600.595459   C816.649475,598.803589 816.325989,597.405273 816.008911,595.589111   C816.673706,589.428284 817.889282,583.686646 817.903870,577.941956   C818.046997,521.541077 818.108765,465.139374 817.963013,408.738495   C817.732361,319.471497 817.324646,230.204956 816.991272,140.549271   C816.991394,139.126236 816.992126,138.092133 816.992798,137.058044  z"/>
<path fill="#FFFFFF" opacity="1.000000" stroke="none" d=" M830.769409,375.817383   C829.767151,377.008118 829.003967,377.915161 827.398560,379.823212   C827.398560,373.132965 827.398560,367.841644 827.398560,362.024139   C831.558411,364.739227 835.194214,367.112335 839.591125,369.982147   C836.366089,372.068237 833.687317,373.800964 830.769409,375.817383  z"/>
<path fill="#DDDDDD" opacity="1.000000" stroke="none" d=" M859.056213,393.040253   C918.820251,393.036530 978.584290,393.073456 1038.348022,392.941864   C1042.539673,392.932648 1044.113770,393.718170 1044.078003,398.347565   C1043.857056,426.979309 1043.981934,455.613678 1043.931763,484.247040   C1043.928345,486.208466 1043.436279,488.169037 1043.141846,490.868835   C1043.749878,492.056824 1044.387695,492.505951 1045.025513,492.955078   C1121.038086,492.957825 1197.050781,492.960571 1273.531738,492.941437   C1274.002563,493.399719 1274.005005,493.879883 1274.003784,494.720947   C1197.987793,495.067047 1121.975586,495.052246 1045.202393,495.054413   C1044.279541,495.715698 1044.117554,496.360046 1043.955566,497.004364   C1043.650513,523.718079 1043.345581,550.431763 1042.643555,577.582031   C1040.829346,578.333191 1039.412231,578.647888 1037.995117,578.962585   C978.661194,578.960999 919.327332,578.959412 859.505249,578.488403   C859.030151,516.359436 859.043152,454.699860 859.056213,393.040253  z"/>
<path fill="#DDDDDD" opacity="1.000000" stroke="none" d=" M840.628479,597.018433   C984.018921,597.013977 1127.042725,597.020569 1270.535645,597.018494   C1273.660278,597.737732 1273.588013,599.204285 1271.408081,600.138550   C1268.463745,601.400208 1265.264771,602.868958 1262.173706,602.872070   C1128.508545,603.005920 994.843262,602.987183 861.177979,602.986694   C855.844727,602.986694 850.494873,603.226135 845.186401,602.862549   C843.096497,602.719421 840.838684,601.566101 839.131714,600.255188   C837.389465,598.917053 837.637817,597.330933 840.628479,597.018433  z"/>
<path fill="#DDDDDD" opacity="1.000000" stroke="none" d=" M947.000000,97.985275   C1046.808838,97.985229 1146.117676,97.984985 1245.426514,97.985733   C1251.990967,97.985786 1251.994385,97.989304 1251.994507,104.381149   C1251.995605,147.537170 1251.889893,190.693771 1252.131104,233.848434   C1252.160522,239.133301 1250.546997,240.076004 1245.669922,240.071060   C1118.368164,239.942047 991.066223,239.972153 863.764343,239.973221   C857.031738,239.973282 857.023132,239.966370 857.022583,233.419128   C857.018921,190.263123 857.096375,147.106766 856.910339,103.951561   C856.889465,99.123375 858.228821,97.832069 863.021729,97.870827   C890.846313,98.095840 918.673645,97.983528 947.000000,97.985275  z"/>
<path fill="#DDDDDD" opacity="1.000000" stroke="none" d=" M1134.751465,40.039268   C1149.132568,41.251976 1155.618774,46.736729 1158.336792,59.586029   C1160.895752,71.683685 1150.074829,84.924103 1137.431274,84.959267   C1112.274902,85.029221 1087.118408,84.983047 1061.961914,84.983528   C1001.153259,84.984688 940.343750,84.828056 879.536621,85.131943   C868.713989,85.186028 859.414124,76.175262 857.200928,67.330772   C854.813599,57.790501 862.065674,44.758377 871.600281,41.500908   C875.415833,40.197315 879.772278,40.097202 883.883118,40.093536   C967.349182,40.019089 1050.815308,40.038315 1134.751465,40.039268  z"/>
<path fill="#DDDDDD" opacity="1.000000" stroke="none" d=" M1029.000000,315.021118   C1089.315063,315.022034 1149.130249,315.018311 1208.945312,315.029297   C1217.087769,315.030792 1221.029053,318.322052 1220.970581,324.961395   C1220.931396,329.408875 1217.188965,333.509186 1212.681396,333.945679   C1211.360596,334.073547 1210.017456,333.971252 1208.684570,333.971313   C1094.719238,333.975189 980.753967,333.978668 866.788696,333.982605   C859.064270,333.982880 855.268677,331.290100 855.000977,325.614929   C854.659119,318.368805 858.109497,315.028656 866.049683,315.027191   C920.199768,315.016998 974.349915,315.021393 1029.000000,315.021118  z"/>
<path fill="#DDDDDD" opacity="1.000000" stroke="none" d=" M1089.974365,271.034180   C1015.524475,271.034088 941.569092,270.880066 867.616638,271.271576   C860.212830,271.310791 854.693909,263.261963 858.199036,258.550629   C860.044250,256.070404 863.326355,254.183624 866.342224,253.191345   C869.047791,252.301147 872.276855,253.001343 875.275024,253.001343   C948.063660,253.001205 1020.852234,253.001083 1093.640869,253.002380   C1095.306396,253.002411 1096.983276,252.896820 1098.635498,253.049759   C1104.139526,253.559265 1107.241333,257.163849 1107.004883,262.642242   C1106.770996,268.066132 1103.747925,270.888428 1097.964966,271.016022   C1095.467773,271.071167 1092.968262,271.030975 1089.974365,271.034180  z"/>
<path fill="#DDDDDD" opacity="1.000000" stroke="none" d=" M978.960144,284.022339   C981.616455,284.023285 983.781006,283.992554 985.944458,284.027466   C991.720825,284.120605 995.887390,287.806519 995.969849,292.863129   C996.061584,298.488190 992.324463,302.457123 986.456482,302.935455   C985.629395,303.002869 984.792603,302.952850 983.960266,302.952850   C946.005981,302.952728 908.051392,303.022675 870.098083,302.831665   C866.671387,302.814423 862.713257,301.890564 859.975708,299.987183   C856.954041,297.886261 856.028076,294.106995 857.877258,290.136261   C859.759766,286.093903 862.431213,283.945465 867.102356,283.970459   C888.242920,284.083344 909.384399,284.020569 930.525574,284.020782   C946.506348,284.020935 962.487122,284.020691 978.960144,284.022339  z"/>
<path fill="#DDDDDD" opacity="1.000000" stroke="none" d=" M1270.558594,355.045746   C1271.546753,355.660614 1272.089478,356.271057 1273.390137,357.734131   C1269.766113,358.577515 1266.709839,359.908844 1263.652466,359.911133   C1124.854736,360.014587 986.056946,360.000427 847.259155,360.009552   C843.749207,360.009766 840.055481,360.471863 839.009888,355.352661   C917.097961,355.297180 995.198242,355.700775 1073.298950,355.937439   C1120.447021,356.080292 1167.596313,356.048187 1214.744507,355.921539   C1233.201416,355.871979 1251.656982,355.348785 1270.558594,355.045746  z"/>
<path fill="#DDDDDD" opacity="1.000000" stroke="none" d=" M33.973587,176.000000   C33.972519,133.341385 34.048016,91.182434 33.864468,49.024616   C33.843723,44.259918 35.067291,42.881489 39.922459,42.886555   C166.231537,43.018440 292.540833,43.027443 418.849854,42.866150   C424.071594,42.859482 425.125977,44.356762 425.114258,49.292969   C424.951141,118.112778 424.948456,186.933212 425.113403,255.753006   C425.125336,260.726044 424.004883,262.172577 418.824982,262.166199   C292.515961,262.010193 166.206680,262.017792 39.897614,262.151031   C35.009167,262.156189 33.824257,260.722534 33.864494,255.983307   C34.089443,229.490479 33.973255,202.994736 33.973587,176.000000  z"/>
<path fill="#DDDDDD" opacity="1.000000" stroke="none" d=" M258.036072,286.979492   C306.694031,286.984711 354.858093,286.973022 403.022186,287.008575   C412.415771,287.015503 419.311340,291.201904 422.954529,299.974579   C426.419373,308.317841 425.464172,315.980255 419.502991,323.205750   C414.992035,328.673431 409.578674,331.036652 402.675507,331.029846   C353.178223,330.981049 303.680695,330.941772 254.183548,331.040802   C241.185715,331.066803 233.888123,324.119568 230.711411,313.733704   C227.337982,302.704712 237.394562,287.133820 251.042389,286.988159   C253.208771,286.965027 255.375565,286.981140 258.036072,286.979492  z"/>
<path fill="#DDDDDD" opacity="1.000000" stroke="none" d=" M72.000000,314.996338   C108.630768,314.997223 144.761536,315.002777 180.892303,314.992157   C184.651459,314.991058 187.782516,315.851227 189.146179,319.920166   C190.490417,323.931091 190.927963,327.890259 187.318237,330.825348   C185.786102,332.071136 183.433502,332.907074 181.451172,332.912140   C135.164154,333.030273 88.876755,333.024933 42.589466,332.988129   C37.893726,332.984375 33.927578,328.607697 33.992039,323.872986   C34.069275,318.199799 36.946804,315.083557 42.528980,315.026001   C52.185062,314.926453 61.842899,314.997101 72.000000,314.996338  z"/>
<path fill="#DDDDDD" opacity="1.000000" stroke="none" d=" M122.989883,285.027802   C126.820366,285.026001 130.154999,284.953583 133.485703,285.037323   C140.038940,285.202087 144.015381,288.862976 143.955887,294.564789   C143.896500,300.257294 139.920853,303.910461 133.320648,303.925323   C106.324623,303.986176 79.328384,303.951233 52.332218,303.951385   C49.665932,303.951385 46.997169,304.024048 44.333843,303.934845   C37.643616,303.710846 33.807255,299.894928 34.000084,293.753113   C34.162907,288.567017 38.428158,285.023041 44.503395,285.023438   C70.499687,285.025238 96.495972,285.026398 122.989883,285.027802  z"/>
<path fill="#DDDDDD" opacity="1.000000" stroke="none" d=" M446.535522,355.958984   C447.005219,356.704407 447.009216,357.465485 446.537476,358.608582   C301.041443,358.994141 156.021118,358.997681 11.000797,359.001221   C10.606115,358.166779 10.211433,357.332367 9.909121,356.236786   C10.169792,355.977020 10.338095,355.978363 10.841225,356.158051   C11.449537,356.223175 11.723022,356.109985 11.996509,355.996826   C22.286102,355.681580 32.575562,355.097076 42.865307,355.092010   C169.974380,355.029297 297.083527,355.035889 424.192596,355.090546   C431.485168,355.093689 438.777435,355.666779 446.535522,355.958984  z"/>
<path fill="#F2F2F2" opacity="1.000000" stroke="none" d=" M11.750195,355.993408   C11.723022,356.109985 11.449537,356.223175 11.093630,356.163452   C11.011207,355.990540 11.503882,355.989990 11.750195,355.993408  z"/>
<path fill="#DDDDDD" opacity="1.000000" stroke="none" d=" M1063.301270,529.472351   C1068.005371,521.782837 1074.937988,519.036987 1083.184448,519.032410   C1131.500732,519.005554 1179.818115,519.199280 1228.132935,518.941589   C1248.412842,518.833435 1256.090088,536.440552 1251.973389,548.542175   C1248.983643,557.330688 1239.999634,563.945190 1230.754028,563.954163   C1181.271484,564.002319 1131.788696,564.070068 1082.306519,563.929199   C1064.769531,563.879272 1054.302368,546.302795 1063.301270,529.472351  z"/>
<path fill="#DDDDDD" opacity="1.000000" stroke="none" d=" M1076.272461,414.966888   C1065.956299,415.532227 1062.559570,407.557922 1064.940674,401.707672   C1066.680786,397.432526 1070.006348,395.963409 1074.436890,395.972168   C1100.918701,396.024414 1127.400635,395.989532 1153.882446,395.992889   C1181.696777,395.996399 1209.510986,396.006378 1237.325317,396.021912   C1244.694824,396.026031 1247.891602,398.664124 1247.978027,404.763062   C1248.068237,411.126190 1244.155762,414.883820 1237.128540,414.945312   C1227.968628,415.025482 1218.807617,414.967224 1209.647095,414.967224   C1165.343506,414.967255 1121.039917,414.966797 1076.272461,414.966888  z"/>
<path fill="#DDDDDD" opacity="1.000000" stroke="none" d=" M1114.000000,472.984924   C1100.510986,472.983978 1087.512451,473.248413 1074.539795,472.787109   C1071.471924,472.678009 1067.559570,470.865601 1065.706055,468.517914   C1063.398560,465.595398 1063.576782,461.445953 1066.052490,457.840820   C1068.355469,454.487152 1071.513184,453.985138 1075.187378,453.990875   C1109.491821,454.044556 1143.796143,454.023956 1178.100586,454.025421   C1186.926392,454.025787 1195.752441,454.002808 1204.578125,454.038239   C1211.182617,454.064758 1214.981567,457.486664 1215.014526,463.336761   C1215.049438,469.537720 1211.338501,472.965576 1204.424194,472.970612   C1174.449463,472.992401 1144.474731,472.983032 1114.000000,472.984924  z"/>
<path fill="#DDDDDD" opacity="1.000000" stroke="none" d=" M1072.116943,424.808563   C1074.326050,424.490997 1076.125610,424.072845 1077.925537,424.070374   C1108.248413,424.029175 1138.571411,424.007599 1168.894043,424.096130   C1171.496094,424.103699 1174.227905,424.553802 1176.668213,425.437103   C1181.198730,427.077026 1182.966309,430.651276 1181.915405,435.906433   C1181.035278,440.308197 1177.859863,442.727081 1173.540527,442.920685   C1167.055542,443.211426 1160.548462,443.017334 1154.050781,443.018036   C1127.393311,443.020813 1100.735840,443.042297 1074.078369,443.000458   C1068.585083,442.991821 1064.769165,439.629883 1064.103149,434.522919   C1063.566040,430.404297 1066.667358,426.480316 1072.116943,424.808563  z"/>
<path fill="#F2F2F2" opacity="1.000000" stroke="none" d=" M858.697327,393.215698   C859.043152,454.699860 859.030151,516.359436 859.040649,578.481201   C858.378662,577.185547 857.098206,575.429138 857.094238,573.669800   C856.985535,525.913757 857.007507,478.157440 857.007202,430.401184   C857.007141,419.751709 856.947388,409.101562 857.064453,398.453369   C857.083008,396.761505 857.893860,395.078369 858.697327,393.215698  z"/>
<path fill="#F2F2F2" opacity="1.000000" stroke="none" d=" M1038.228760,579.239441   C1039.412231,578.647888 1040.829346,578.333191 1042.634644,578.029419   C1041.502686,578.532227 1039.982422,579.024231 1038.228760,579.239441  z"/>
<path fill="#F2F2F2" opacity="1.000000" stroke="none" d=" M1044.976318,492.646057   C1044.387695,492.505951 1043.749878,492.056824 1043.103027,491.280518   C1043.704956,491.414581 1044.315918,491.875824 1044.976318,492.646057  z"/>
<path fill="#F2F2F2" opacity="1.000000" stroke="none" d=" M1044.206543,496.846008   C1044.117554,496.360046 1044.279541,495.715698 1044.735718,495.061035   C1044.839111,495.596344 1044.648315,496.141998 1044.206543,496.846008  z"/>
<path fill="#DDDDDD" opacity="1.000000" stroke="none" d=" M791.957642,48.979454   C804.237122,60.017464 809.340515,73.223686 804.401978,88.989433   C795.491150,117.435623 761.054993,120.707298 744.272644,104.166504   C727.577393,87.711479 729.556458,59.030678 751.700500,46.428928   C764.964478,38.880657 778.806458,39.885315 791.957642,48.979454  z"/>
<path fill="#DDDDDD" opacity="1.000000" stroke="none" d=" M687.997253,54.006432   C692.662537,54.006695 696.829407,53.954376 700.994324,54.020153   C706.538147,54.107712 709.027466,56.722095 709.032349,62.319408   C709.037231,67.930939 706.401672,70.980156 701.179321,70.982628   C633.690491,71.014534 566.201721,71.012268 498.712921,70.988274   C494.731171,70.986855 490.433136,67.285088 490.136383,63.453480   C489.797821,59.082123 492.009247,56.075550 496.171539,54.870300   C498.357178,54.237415 500.736450,54.042889 503.028534,54.041298   C564.518311,53.998634 626.008118,54.006828 687.997253,54.006432  z"/>
<path fill="#DDDDDD" opacity="1.000000" stroke="none" d=" M564.000000,100.988182   C542.351624,100.988060 521.203247,100.995995 500.054901,100.982658   C494.155975,100.978943 489.909424,97.052002 490.039612,91.794327   C490.167206,86.639648 493.525787,83.978714 500.048340,83.977448   C542.511597,83.969208 584.974792,83.972260 627.438049,83.986641   C634.246399,83.988945 637.013489,86.472458 637.012207,92.453346   C637.010864,98.295547 634.019348,100.977791 627.445496,100.980621   C606.463684,100.989639 585.481812,100.986588 564.000000,100.988182  z"/>
<path fill="#DDDDDD" opacity="1.000000" stroke="none" d=" M816.607910,137.216049   C816.992126,138.092133 816.991394,139.126236 816.558472,140.556931   C803.669250,140.643448 791.212341,140.073792 778.755066,140.064407   C680.466919,139.990372 582.178650,140.009460 483.890442,140.061264   C478.597870,140.064056 473.305542,140.617599 468.013123,140.914764   C468.008545,140.184174 468.003967,139.453583 467.999695,138.357452   C582.446533,138.002365 696.893066,138.015472 811.339600,137.996231   C812.967468,137.995956 814.595276,137.590439 816.607910,137.216049  z"/>
<path fill="#FDFDFD" opacity="1.000000" stroke="none" d=" M467.410950,127.907440   C467.012451,94.979774 467.007935,61.958149 467.006531,28.467798   C467.672974,29.293121 468.910919,30.585150 468.915466,31.881508   C469.023590,62.687904 469.012329,93.494781 468.948608,124.301414   C468.946198,125.472893 468.202942,126.642830 467.410950,127.907440  z"/>
<path fill="#FFFFFF" opacity="1.000000" stroke="none" d=" M10.998261,359.469757   C156.021118,358.997681 301.041443,358.994141 446.530273,358.988159   C446.997742,409.317261 446.996704,459.648804 446.528870,510.464783   C306.001770,510.954315 165.941452,510.968689 25.881134,510.926575   C20.923687,510.925079 15.966409,510.364258 11.009051,510.064148   C11.004609,460.022186 11.000167,409.980255 10.998261,359.469757  M311.500000,399.992950   C332.826141,399.993134 354.152496,399.945496 375.478241,400.034027   C379.715332,400.051636 383.051422,398.773407 384.869141,394.844635   C388.031982,388.008575 383.404114,382.028412 375.008728,382.027710   C279.541229,382.019501 184.073730,382.022003 88.606239,382.021515   C73.444733,382.021423 58.283146,381.992340 43.121761,382.034912   C37.232605,382.051453 34.222946,384.830658 33.992741,390.227020   C33.696880,397.162384 36.745640,399.989746 44.590214,399.990143   C133.226807,399.994476 221.863403,399.992920 311.500000,399.992950  M133.500000,440.030518   C123.501770,440.030518 113.503540,440.031219 103.505310,440.030334   C84.175331,440.028625 64.845093,439.971588 45.515564,440.064575   C41.042759,440.086090 36.198269,440.112823 34.177818,445.319580   C31.449261,452.351257 35.789238,457.989685 43.809563,457.990875   C128.628220,458.003326 213.446884,457.995972 298.265533,457.991089   C299.264648,457.991028 300.294952,458.102417 301.257538,457.903992   C305.429962,457.043762 308.026642,454.440887 308.903076,450.312988   C309.790527,446.133148 307.829498,442.989075 304.234100,441.361389   C301.919556,440.313568 299.077942,440.080811 296.471863,440.077576   C242.481293,440.010620 188.490646,440.029053 133.500000,440.030518  M162.500000,469.000000   C125.502518,469.000397 88.505043,469.000092 51.507561,469.002319   C48.174549,469.002533 44.832249,468.865784 41.510841,469.066711   C37.222469,469.326050 33.183918,473.619812 33.166298,477.636902   C33.143555,482.822021 36.979481,486.964417 42.054291,486.966583   C101.716934,486.991913 161.379608,486.995331 221.042160,486.913849   C222.715225,486.911560 224.612289,486.240417 226.017197,485.301178   C230.314392,482.428314 230.127151,477.351624 228.367935,474.118835   C226.938400,471.491882 222.276428,469.307037 218.990784,469.225281   C200.503418,468.765472 181.998764,469.001373 162.500000,469.000000  M85.500000,428.986542   C103.979156,428.988617 122.458321,428.999207 140.937469,428.987579   C146.584366,428.984009 150.816849,425.290833 150.965363,420.308899   C151.122833,415.027557 146.879883,411.027435 140.902725,411.022034   C108.272865,410.992493 75.642937,410.986786 43.013077,411.019714   C37.196674,411.025574 32.800850,415.284332 33.245937,420.667023   C33.568504,424.567993 37.059372,429.364655 43.052589,429.150269   C56.852684,428.656586 70.682343,428.989227 85.500000,428.986542  z"/>
<path fill="#FFFFFF" opacity="1.000000" stroke="none" d=" M16.998808,596.903442   C11.749819,595.464600 10.800481,591.897034 10.873158,586.796692   C11.167525,566.139099 11.015937,545.474854 10.971134,524.813171   C10.963648,521.360840 10.669878,517.909119 11.240985,514.210938   C156.970108,513.965698 301.966644,513.966614 446.963165,513.967529   C446.976654,516.496338 447.001587,519.025085 447.001892,521.553894   C447.004486,543.767761 446.944305,565.981873 447.053497,588.195190   C447.074310,592.431885 445.352051,595.041199 440.765533,596.676147   C337.336243,596.957520 234.608063,596.967773 131.879883,596.962952   C93.586189,596.961121 55.292500,596.924316 16.998808,596.903442  M160.500000,537.026978   C124.678375,537.028076 88.856735,537.013794 53.035141,537.044861   C46.788849,537.050293 40.894947,538.808044 37.217567,543.959778   C33.520466,549.139038 32.227230,555.518127 35.181168,561.433411   C38.429344,567.937927 43.867733,571.151855 51.733727,571.141052   C167.195770,570.982300 282.658112,571.032104 398.120392,571.049072   C400.274689,571.049377 402.438293,571.164551 404.581757,571.381714   C416.526764,572.591980 423.876801,566.269165 424.874023,554.850586   C425.756470,544.745972 417.224548,537.032410 405.920135,537.030823   C324.446747,537.019470 242.973373,537.026062 160.500000,537.026978  z"/>
<path fill="#DDDDDD" opacity="1.000000" stroke="none" d=" M446.977234,513.586426   C301.966644,513.966614 156.970108,513.965698 11.510128,513.960938   C11.032934,512.918457 11.019188,511.879639 11.007246,510.452515   C15.966409,510.364258 20.923687,510.925079 25.881134,510.926575   C165.941452,510.968689 306.001770,510.954315 446.530273,510.927521   C446.996063,511.672333 446.993713,512.438843 446.977234,513.586426  z"/>
<path fill="#DDDDDD" opacity="1.000000" stroke="none" d=" M17.075764,597.313599   C55.292500,596.924316 93.586189,596.961121 131.879883,596.962952   C234.608063,596.967773 337.336243,596.957520 440.533020,596.930664   C440.245453,597.603882 439.584564,598.695740 438.711548,598.905701   C437.293213,599.246948 435.735962,599.017517 434.237366,599.017517   C297.357422,599.019165 160.477493,599.025696 23.597576,598.966370   C21.449116,598.965454 19.301001,598.155884 17.075764,597.313599  z"/>
<path fill="#FFFFFF" opacity="1.000000" stroke="none" d=" M468.006409,141.387970   C473.305542,140.617599 478.597870,140.064056 483.890442,140.061264   C582.178650,140.009460 680.466919,139.990372 778.755066,140.064407   C791.212341,140.073792 803.669250,140.643448 816.559082,140.945877   C817.324646,230.204956 817.732361,319.471497 817.963013,408.738495   C818.108765,465.139374 818.046997,521.541077 817.903870,577.941956   C817.889282,583.686646 816.673706,589.428284 815.586609,595.610596   C812.703857,596.378296 810.250000,596.992737 807.795959,596.993835   C697.171082,597.044067 586.546265,597.052429 475.921448,596.961182   C473.598145,596.959290 471.275818,595.733398 468.953064,595.078491   C468.303253,589.503967 467.112732,583.931580 467.090271,578.354492   C466.928558,538.223083 467.003632,498.090637 467.003632,457.958527   C467.003632,448.351990 467.003662,438.745453 467.003662,428.820618   C469.691406,428.686859 471.165314,428.613495 472.760712,428.534119   C472.671753,427.693787 472.656403,426.813965 472.566681,426.806335   C466.367065,426.277222 466.956299,421.908020 466.959381,417.498688   C467.019135,332.238800 466.981598,246.978882 467.046661,161.719025   C467.051727,155.099503 467.667664,148.480438 468.006409,141.387970  M490.023743,359.500000   C490.022705,428.645813 490.067352,497.791718 489.919586,566.937195   C489.909546,571.626160 490.971100,573.111694 495.906097,573.104248   C592.876587,572.957214 689.847473,572.953125 786.817932,573.123962   C791.988281,573.133057 793.103882,571.711548 793.098572,566.727173   C792.957825,434.600494 792.959717,302.473602 793.094238,170.346909   C793.099243,165.434311 792.096863,163.895050 786.853577,163.904465   C689.883179,164.078613 592.912354,164.067993 495.941864,163.923569   C491.066010,163.916321 489.905762,165.313004 489.917664,170.057083   C490.075226,232.871078 490.023346,295.685608 490.023743,359.500000  z"/>
<path fill="#DDDDDD" opacity="1.000000" stroke="none" d=" M468.659851,595.199219   C471.275818,595.733398 473.598145,596.959290 475.921448,596.961182   C586.546265,597.052429 697.171082,597.044067 807.795959,596.993835   C810.250000,596.992737 812.703857,596.378296 815.580078,596.028442   C816.325989,597.405273 816.649475,598.803589 816.969543,600.584167   C809.797241,601.639954 802.629089,602.891602 795.459412,602.900146   C689.703003,603.026428 583.946350,602.956726 478.189972,603.100647   C473.973297,603.106323 470.904327,601.623291 467.868622,599.246643   C465.814423,597.638428 465.936432,596.341675 468.659851,595.199219  z"/>
<path fill="#DDDDDD" opacity="1.000000" stroke="none" d=" M311.000000,399.992920   C221.863403,399.992920 133.226807,399.994476 44.590214,399.990143   C36.745640,399.989746 33.696880,397.162384 33.992741,390.227020   C34.222946,384.830658 37.232605,382.051453 43.121761,382.034912   C58.283146,381.992340 73.444733,382.021423 88.606239,382.021515   C184.073730,382.022003 279.541229,382.019501 375.008728,382.027710   C383.404114,382.028412 388.031982,388.008575 384.869141,394.844635   C383.051422,398.773407 379.715332,400.051636 375.478241,400.034027   C354.152496,399.945496 332.826141,399.993134 311.000000,399.992920  z"/>
<path fill="#DDDDDD" opacity="1.000000" stroke="none" d=" M134.000000,440.030579   C188.490646,440.029053 242.481293,440.010620 296.471863,440.077576   C299.077942,440.080811 301.919556,440.313568 304.234100,441.361389   C307.829498,442.989075 309.790527,446.133148 308.903076,450.312988   C308.026642,454.440887 305.429962,457.043762 301.257538,457.903992   C300.294952,458.102417 299.264648,457.991028 298.265533,457.991089   C213.446884,457.995972 128.628220,458.003326 43.809563,457.990875   C35.789238,457.989685 31.449261,452.351257 34.177818,445.319580   C36.198269,440.112823 41.042759,440.086090 45.515564,440.064575   C64.845093,439.971588 84.175331,440.028625 103.505310,440.030334   C113.503540,440.031219 123.501770,440.030518 134.000000,440.030579  z"/>
<path fill="#DDDDDD" opacity="1.000000" stroke="none" d=" M163.000000,469.000000   C181.998764,469.001373 200.503418,468.765472 218.990784,469.225281   C222.276428,469.307037 226.938400,471.491882 228.367935,474.118835   C230.127151,477.351624 230.314392,482.428314 226.017197,485.301178   C224.612289,486.240417 222.715225,486.911560 221.042160,486.913849   C161.379608,486.995331 101.716934,486.991913 42.054291,486.966583   C36.979481,486.964417 33.143555,482.822021 33.166298,477.636902   C33.183918,473.619812 37.222469,469.326050 41.510841,469.066711   C44.832249,468.865784 48.174549,469.002533 51.507561,469.002319   C88.505043,469.000092 125.502518,469.000397 163.000000,469.000000  z"/>
<path fill="#DDDDDD" opacity="1.000000" stroke="none" d=" M85.000000,428.986572   C70.682343,428.989227 56.852684,428.656586 43.052589,429.150269   C37.059372,429.364655 33.568504,424.567993 33.245937,420.667023   C32.800850,415.284332 37.196674,411.025574 43.013077,411.019714   C75.642937,410.986786 108.272865,410.992493 140.902725,411.022034   C146.879883,411.027435 151.122833,415.027557 150.965363,420.308899   C150.816849,425.290833 146.584366,428.984009 140.937469,428.987579   C122.458321,428.999207 103.979156,428.988617 85.000000,428.986572  z"/>
<path fill="#DDDDDD" opacity="1.000000" stroke="none" d=" M161.000000,537.026978   C242.973373,537.026062 324.446747,537.019470 405.920135,537.030823   C417.224548,537.032410 425.756470,544.745972 424.874023,554.850586   C423.876801,566.269165 416.526764,572.591980 404.581757,571.381714   C402.438293,571.164551 400.274689,571.049377 398.120392,571.049072   C282.658112,571.032104 167.195770,570.982300 51.733727,571.141052   C43.867733,571.151855 38.429344,567.937927 35.181168,561.433411   C32.227230,555.518127 33.520466,549.139038 37.217567,543.959778   C40.894947,538.808044 46.788849,537.050293 53.035141,537.044861   C88.856735,537.013794 124.678375,537.028076 161.000000,537.026978  z"/>
<path fill="#DDDDDD" opacity="1.000000" stroke="none" d=" M490.023743,359.000000   C490.023346,295.685608 490.075226,232.871078 489.917664,170.057083   C489.905762,165.313004 491.066010,163.916321 495.941864,163.923569   C592.912354,164.067993 689.883179,164.078613 786.853577,163.904465   C792.096863,163.895050 793.099243,165.434311 793.094238,170.346909   C792.959717,302.473602 792.957825,434.600494 793.098572,566.727173   C793.103882,571.711548 791.988281,573.133057 786.817932,573.123962   C689.847473,572.953125 592.876587,572.957214 495.906097,573.104248   C490.971100,573.111694 489.909546,571.626160 489.919586,566.937195   C490.067352,497.791718 490.022705,428.645813 490.023743,359.000000  z"/>
</svg>