<svg width="25" height="24" viewBox="0 0 25 24" fill="none" xmlns="http://www.w3.org/2000/svg">
<path d="M25.1156 12C25.1156 13.4016 24.8605 14.7469 24.3994 16.0031C22.6678 20.6578 18.0175 24 12.5578 24C7.0981 24 2.44779 20.6578 0.716187 16.0031C0.25508 14.7469 0 13.4016 0 12C0 10.5984 0.25508 9.25313 0.716187 7.99688C2.44779 3.34219 7.0981 0 12.5578 0C18.0175 0 22.6678 3.34219 24.3994 7.99688C24.8605 9.25313 25.1156 10.5984 25.1156 12Z" fill="white"/>
<path d="M24.3995 7.99687H0.716309C2.44791 3.34219 7.09822 0 12.5579 0C18.0176 0 22.6679 3.34219 24.3995 7.99687Z" fill="#FF9933"/>
<path d="M24.3995 16.0029C22.6679 20.6576 18.0176 23.9998 12.5579 23.9998C7.09822 23.9998 2.44791 20.6576 0.716309 16.0029H24.3995Z" fill="#128807"/>
<path d="M13.0041 12.3607L13.0139 12.3561L13.0188 12.3514L13.0287 12.342C13.0336 12.3373 13.0336 12.3326 13.0336 12.3326L13.0434 12.3232L13.0483 12.3186C13.0483 12.3186 13.0532 12.3139 13.0581 12.3092L13.063 12.3045L13.5192 12.6373L15.1036 13.4014L13.6222 12.4686L13.0973 12.2576L13.1022 12.2529L13.1071 12.2436C13.1071 12.2436 13.112 12.2389 13.112 12.2342L13.117 12.2248C13.117 12.2248 13.1219 12.2201 13.1219 12.2154L13.1268 12.2061L13.1317 12.1967L13.1366 12.1873L13.1415 12.1779C13.1415 12.1732 13.1415 12.1732 13.1415 12.1732L13.6713 12.3795L15.4078 12.7264L13.7252 12.192L13.1611 12.117L13.166 12.1123V12.1029C13.166 12.0982 13.1709 12.0982 13.1709 12.0982V12.0889L13.1758 12.0795C13.1758 12.0748 13.1758 12.0748 13.1758 12.0748L13.1807 12.0654V12.0467C13.1807 12.042 13.1807 12.0373 13.1807 12.0373V12.0279L13.7497 12.0936L15.5206 11.9951L13.7497 11.8967L13.1807 11.9623V11.9576C13.1807 11.9529 13.1807 11.9482 13.1807 11.9482V11.9389L13.1758 11.9295C13.1758 11.9248 13.1758 11.9248 13.1758 11.9248L13.1709 11.9107V11.9061C13.1709 11.9014 13.166 11.8967 13.166 11.8967V11.8873L13.1611 11.8779L13.7252 11.8029L15.4078 11.2732L13.6713 11.6201L13.1415 11.8264V11.8217L13.1366 11.8123L13.1317 11.8029C13.1317 11.7982 13.1317 11.7982 13.1317 11.7982L13.1268 11.7889C13.1219 11.7842 13.1219 11.7795 13.1219 11.7795C13.117 11.7748 13.117 11.7701 13.117 11.7701L13.112 11.7607L13.1071 11.7514L13.1022 11.7467L13.6271 11.5357L15.1085 10.6076L13.5241 11.3717L13.0679 11.6998C13.0679 11.6951 13.063 11.6951 13.063 11.6951L13.0532 11.6857L13.0483 11.6764L13.0434 11.6717C13.0385 11.667 13.0385 11.667 13.0385 11.667L13.0287 11.6576L13.0237 11.6529C13.0237 11.6529 13.0188 11.6482 13.0139 11.6436L13.009 11.6342L13.0041 11.6295L13.4554 11.2967L14.6376 10.0311L13.3034 11.1561L12.9502 11.5873L12.9453 11.5826L12.9355 11.5779L12.9305 11.5732C12.9256 11.5686 12.9256 11.5686 12.9256 11.5686L12.9158 11.5592L12.906 11.5498L12.9011 11.5451L12.8913 11.5404L12.8815 11.5357L12.8766 11.5311L13.22 11.0951L14.0195 9.58105L13.0434 10.9967L12.8226 11.4982L12.8177 11.4936C12.8128 11.4936 12.8128 11.4889 12.8128 11.4889L12.803 11.4842L12.7932 11.4795L12.7834 11.4748L12.7736 11.4701L12.7638 11.4654L12.754 11.4607L12.7441 11.4561L12.7343 11.4514L12.9502 10.9451L13.3132 9.28574L12.7589 10.8936L12.6804 11.4326H12.6755C12.6706 11.4279 12.6657 11.4279 12.6657 11.4279L12.6558 11.4232C12.6558 11.4232 12.6509 11.4232 12.646 11.4232L12.6362 11.4186H12.6264H12.6215L12.6117 11.4139H12.6019C12.6019 11.4139 12.597 11.4139 12.5921 11.4139L12.6608 10.8748L12.5577 9.18262L12.4547 10.8748L12.5234 11.4139H12.5185H12.5087L12.4989 11.4186H12.4891H12.4793L12.4694 11.4232H12.4596L12.4498 11.4279C12.4498 11.4279 12.4449 11.4279 12.44 11.4326H12.4351L12.3566 10.8936L11.8023 9.28574L12.1653 10.9451L12.3811 11.4514L12.3713 11.4561L12.3615 11.4607L12.3517 11.4654L12.3419 11.4701C12.3419 11.4701 12.337 11.4748 12.3321 11.4748L12.3223 11.4795L12.3125 11.4842L12.3076 11.4889C12.3027 11.4936 12.2978 11.4936 12.2978 11.4936L12.2879 11.4982L12.0672 10.9967L11.0959 9.58105L11.8955 11.0951L12.2389 11.5311C12.234 11.5357 12.234 11.5357 12.234 11.5357L12.2242 11.5451C12.2193 11.5451 12.2193 11.5498 12.2193 11.5498L12.2095 11.5545L12.1996 11.5639L12.1898 11.5686L12.1849 11.5732L12.18 11.5779L12.1702 11.5826L12.1653 11.5873L11.8121 11.1561L10.4926 10.0264L11.6748 11.292L12.1261 11.6248L12.1212 11.6295L12.1163 11.6389C12.1113 11.6436 12.1113 11.6436 12.1113 11.6436L12.1064 11.6529L12.0966 11.6623C12.0966 11.6623 12.0917 11.667 12.0917 11.6717L12.0868 11.6764L12.0819 11.6857L12.0721 11.6951L12.0672 11.6998L11.611 11.3717L10.0266 10.6076L11.508 11.5357L12.0329 11.7467C12.0329 11.7514 12.028 11.7514 12.028 11.7514L12.023 11.7607L12.0181 11.7701L12.0132 11.7748L12.0083 11.7842L12.0034 11.7936L11.9985 11.7982L11.9936 11.8076L11.9887 11.817V11.8217L11.4589 11.6154L9.72242 11.2686L11.4099 11.7982L11.974 11.8732L11.9691 11.8826V11.892L11.9642 11.9014V11.9061L11.9593 11.9154V11.9248L11.9544 11.9342V11.9436C11.9544 11.9436 11.9544 11.9482 11.9544 11.9529V11.9576L11.3853 11.892L9.6145 11.9904L11.3853 12.0889L11.9544 12.0232V12.0326C11.9544 12.0326 11.9544 12.0373 11.9544 12.042V12.0514L11.9593 12.0561V12.0654L11.9642 12.0748V12.0842C11.9642 12.0842 11.9691 12.0889 11.9691 12.0936V12.1029L11.974 12.1076L11.4099 12.1826L9.72242 12.717L11.4589 12.3701L11.9887 12.1639C11.9887 12.1639 11.9887 12.1686 11.9887 12.1732L11.9936 12.1826L11.9985 12.192L12.0034 12.2014C12.0034 12.2061 12.0083 12.2061 12.0083 12.2061L12.0132 12.2201L12.0181 12.2295C12.0181 12.2342 12.023 12.2342 12.023 12.2342L12.028 12.2436L12.0329 12.2482L11.508 12.4592L10.0266 13.392L11.611 12.6279L12.0672 12.2951L12.0721 12.2998C12.077 12.3045 12.077 12.3092 12.077 12.3092L12.0819 12.3186C12.0868 12.3232 12.0868 12.3232 12.0868 12.3232C12.0868 12.3232 12.0917 12.3279 12.0966 12.3326L12.1064 12.342L12.1113 12.3467C12.1113 12.3467 12.1163 12.3514 12.1212 12.3514C12.1212 12.3514 12.1261 12.3561 12.1261 12.3607L12.131 12.3654L11.6797 12.7029L10.4975 13.9639L11.817 12.8389L12.1702 12.4076C12.1751 12.4076 12.1751 12.4123 12.1751 12.4123C12.18 12.417 12.1849 12.417 12.1849 12.417L12.1947 12.4264L12.1996 12.4311L12.2095 12.4404L12.2193 12.4451L12.2242 12.4498C12.2242 12.4498 12.2291 12.4545 12.234 12.4545L12.2438 12.4592L12.2487 12.4639L11.9053 12.8998L11.1057 14.4139L12.077 12.9982L12.2978 12.4967L12.3027 12.5014C12.3076 12.5061 12.3125 12.5061 12.3125 12.5061L12.3174 12.5107L12.3272 12.5154L12.337 12.5201C12.3419 12.5248 12.3419 12.5248 12.3419 12.5248L12.3517 12.5295L12.3615 12.5342C12.3615 12.5342 12.3664 12.5389 12.3713 12.5389L12.3811 12.5436L12.1653 13.0498L11.8023 14.7092L12.3566 13.1014L12.4351 12.5623L12.44 12.567H12.4498L12.4596 12.5717H12.4694L12.4793 12.5764H12.4891C12.494 12.5811 12.494 12.5811 12.494 12.5811H12.5038H12.5136H12.5185L12.4498 13.1248L12.5528 14.817L12.6558 13.1248L12.5872 12.5811C12.5921 12.5811 12.5921 12.5811 12.5921 12.5811H12.6019H12.6117C12.6117 12.5811 12.6166 12.5811 12.6166 12.5764H12.6264L12.6362 12.5717C12.6411 12.5717 12.6411 12.5717 12.6411 12.5717L12.6509 12.567H12.6608L12.6657 12.5623L12.7441 13.1014L13.2985 14.7092L12.9355 13.0498L12.7196 12.5436L12.7294 12.5389C12.7343 12.5342 12.7343 12.5342 12.7343 12.5342L12.7441 12.5295L12.754 12.5248L12.7638 12.5201L12.7736 12.5154L12.7834 12.5107L12.7883 12.5061L12.7981 12.5014L12.803 12.4967L13.0237 12.9982L13.9999 14.4139L13.2003 12.8998L12.857 12.4639L12.8619 12.4592L12.8717 12.4545L12.8815 12.4498C12.8864 12.4451 12.8864 12.4451 12.8864 12.4451L12.8962 12.4357L12.906 12.4264L12.9109 12.4217L12.9158 12.417C12.9158 12.417 12.9207 12.4123 12.9256 12.4076L12.9305 12.4029L13.2837 12.8342L14.6033 13.9592L13.4407 12.7123L12.9894 12.3748L12.9943 12.3701C12.9992 12.3654 13.0041 12.3654 13.0041 12.3607Z" fill="#000088"/>
<path d="M12.5577 8.78906C10.6986 8.78906 9.19751 10.2281 9.19751 12C9.19751 13.7719 10.7035 15.2109 12.5577 15.2109C14.4119 15.2109 15.9179 13.7719 15.9179 12C15.9179 10.2281 14.4168 8.78906 12.5577 8.78906ZM15.4274 12.5156L15.447 12.5203C15.4175 12.6703 15.3783 12.8156 15.3243 12.9562C15.2557 12.9281 15.1723 12.9516 15.1379 13.0125C15.0938 13.0828 15.1183 13.1672 15.1919 13.2094C15.1919 13.2094 15.2066 13.2141 15.2115 13.2188C15.1428 13.3547 15.0644 13.4859 14.9761 13.6078C14.9172 13.5609 14.8289 13.5656 14.7749 13.6172C14.721 13.6687 14.721 13.7625 14.7749 13.8187C14.7749 13.8187 14.7848 13.8281 14.7897 13.8328C14.6866 13.95 14.5738 14.0531 14.4561 14.1516C14.4119 14.0953 14.3286 14.0766 14.2599 14.1141C14.1912 14.1563 14.1618 14.2406 14.2059 14.3063C14.2108 14.3156 14.2157 14.3156 14.2157 14.3156C14.0882 14.4094 13.9557 14.4844 13.8086 14.5453C13.7841 14.4797 13.7056 14.4422 13.632 14.4609C13.5535 14.4844 13.5044 14.5594 13.529 14.6344L13.5339 14.6531C13.3867 14.7 13.2346 14.7422 13.0777 14.7703C13.0679 14.6953 13.009 14.6437 12.9305 14.6437C12.8471 14.6437 12.7834 14.7047 12.7834 14.7844L12.7883 14.8031C12.7098 14.8078 12.6362 14.8125 12.5577 14.8125C12.4743 14.8125 12.3958 14.8078 12.3173 14.8031C12.3272 14.7281 12.283 14.6625 12.2094 14.6437C12.126 14.6203 12.0475 14.6672 12.0279 14.7422L12.023 14.7609C11.866 14.7328 11.714 14.6953 11.5668 14.6437C11.5962 14.5781 11.5717 14.5031 11.5079 14.4656C11.4344 14.4234 11.3461 14.4516 11.3068 14.5172C11.3019 14.5219 11.297 14.5312 11.297 14.5312C11.1548 14.4703 11.0174 14.3953 10.8899 14.3109C10.934 14.2547 10.934 14.175 10.8801 14.1188C10.8212 14.0672 10.728 14.0672 10.6642 14.1188C10.6642 14.1188 10.6544 14.1281 10.6544 14.1328C10.5367 14.0344 10.4239 13.9266 10.3208 13.8141C10.3797 13.7719 10.3993 13.6922 10.3601 13.6312C10.3159 13.5609 10.2276 13.5375 10.159 13.5797C10.1492 13.5844 10.1492 13.5891 10.1492 13.5891C10.051 13.4719 9.97747 13.3406 9.90879 13.2C9.97747 13.1766 10.0167 13.1016 9.99709 13.0312C9.97747 12.9563 9.89408 12.9094 9.81559 12.9328C9.80578 12.9328 9.80087 12.9375 9.79106 12.9375C9.74201 12.7969 9.69786 12.6516 9.66843 12.5062C9.74691 12.4969 9.80578 12.4406 9.80578 12.3656C9.80578 12.2859 9.7371 12.225 9.65371 12.225C9.65371 12.225 9.6439 12.225 9.63409 12.2297C9.62918 12.1547 9.62428 12.0844 9.62428 12.0094C9.62428 11.9297 9.62918 11.8547 9.63409 11.7797C9.70767 11.7891 9.78125 11.7469 9.80087 11.6766C9.82049 11.5969 9.77144 11.5219 9.69295 11.5031L9.66352 11.4844C9.69295 11.3344 9.7322 11.1891 9.78616 11.0531C9.85483 11.0813 9.93822 11.0578 9.97256 10.9922C10.0167 10.9266 9.98728 10.8375 9.9186 10.8L9.89898 10.7906C9.96766 10.6547 10.0461 10.5281 10.1344 10.4016C10.1933 10.4437 10.2816 10.4437 10.3356 10.3922C10.3895 10.3359 10.3895 10.2469 10.3356 10.1906C10.3307 10.1859 10.3257 10.1812 10.3257 10.1812C10.4239 10.0594 10.5367 9.95625 10.6544 9.85781C10.6986 9.91406 10.782 9.93281 10.8506 9.89531C10.9193 9.85781 10.9487 9.76875 10.9046 9.70312L10.8948 9.68906C11.0223 9.60469 11.1597 9.52969 11.3019 9.46406C11.3264 9.52969 11.4049 9.56719 11.4785 9.54844C11.557 9.525 11.6061 9.45 11.5815 9.375C11.5815 9.375 11.5766 9.36094 11.5766 9.35156C11.7238 9.30469 11.8759 9.2625 12.0328 9.23906C12.0426 9.30938 12.1015 9.36563 12.18 9.36563C12.2634 9.36563 12.3271 9.3 12.3271 9.225C12.3271 9.21563 12.3271 9.21094 12.3271 9.21094C12.4007 9.19688 12.4743 9.19687 12.5528 9.19687C12.6362 9.19687 12.7147 9.20156 12.7981 9.20625C12.7883 9.27656 12.8324 9.34219 12.906 9.36563C12.9894 9.38438 13.0679 9.3375 13.0875 9.2625C13.0875 9.2625 13.0924 9.24844 13.0924 9.24375C13.2494 9.27187 13.4014 9.30937 13.5486 9.36094C13.5192 9.42656 13.5437 9.50625 13.6075 9.54375C13.681 9.58125 13.7693 9.55781 13.8086 9.49219L13.8184 9.47344C13.9606 9.53906 14.098 9.61406 14.2255 9.70312C14.1765 9.75469 14.1814 9.83906 14.2353 9.89062C14.2942 9.94687 14.3923 9.94687 14.4463 9.89062L14.461 9.87656C14.5787 9.975 14.6915 10.0828 14.7946 10.1953C14.7357 10.2375 14.7161 10.3172 14.7553 10.3828C14.7995 10.4484 14.8878 10.4766 14.9564 10.4344L14.9712 10.425C15.0595 10.5469 15.1379 10.6781 15.2066 10.8141C15.1379 10.8422 15.0987 10.9125 15.1183 10.9828C15.1428 11.0578 15.2213 11.1047 15.2998 11.0859L15.3194 11.0766C15.3685 11.2172 15.4126 11.3625 15.4421 11.5125C15.3636 11.5219 15.3096 11.5781 15.3096 11.6531C15.3096 11.7328 15.3734 11.7938 15.4568 11.7938H15.4764C15.4813 11.8641 15.4862 11.9344 15.4862 12.0094C15.4862 12.0891 15.4813 12.1641 15.4764 12.2438C15.3979 12.2344 15.3292 12.2766 15.3096 12.3469C15.2998 12.4125 15.3489 12.4922 15.4274 12.5156Z" fill="#000088"/>
</svg>
