<svg width="25" height="24" viewBox="0 0 25 24" fill="none" xmlns="http://www.w3.org/2000/svg">
<path fill-rule="evenodd" clip-rule="evenodd" d="M11.8949 2.44995C14.7765 2.44995 17.1267 4.80011 17.1267 7.68177C17.1267 10.5634 14.7765 12.9136 11.8949 12.9136C9.0132 12.9136 6.66304 10.5634 6.66304 7.68177C6.66304 4.80011 9.0132 2.44995 11.8949 2.44995ZM11.8949 12.8136C16.6792 12.8136 20.5812 16.7156 20.5312 21.5499L18.754 21.5C18.754 17.7019 15.6929 14.6409 11.8949 14.6409C8.09683 14.6409 5.03577 17.7019 4.98577 21.5499L3.2085 21.5C3.2085 16.7156 7.1105 12.8136 11.8949 12.8136ZM11.8949 4.27722C10.0063 4.27722 8.49031 5.79319 8.49031 7.68177C8.49031 9.57035 10.0063 11.0863 11.8949 11.0863C13.7834 11.0863 15.2994 9.57035 15.2994 7.68177C15.2994 5.79319 13.7834 4.27722 11.8949 4.27722Z" fill="white"/>
</svg>
