<svg width="33" height="34" viewBox="0 0 33 34" fill="none" xmlns="http://www.w3.org/2000/svg">
<path fill-rule="evenodd" clip-rule="evenodd" d="M17.1509 1.47572L21.2482 10.3573C21.4003 10.6939 21.7044 10.927 22.0592 10.9874L31.2169 12.4115C31.6309 12.4979 31.9688 12.8 32.0955 13.2143C32.2223 13.6286 32.1124 14.0774 31.8168 14.3795L25.185 21.2931C24.9316 21.5607 24.8133 21.9405 24.8724 22.3116L26.4353 32.0736C26.5198 32.4965 26.3593 32.9281 26.0298 33.187C25.6919 33.446 25.2442 33.4891 24.8724 33.2906L16.6778 28.6815C16.3652 28.5089 15.9851 28.5089 15.6725 28.6815L7.47786 33.2906C7.10615 33.4891 6.6584 33.446 6.32048 33.187C5.98256 32.9281 5.83049 32.4965 5.91497 32.0736L7.47786 22.3116C7.537 21.9405 7.42718 21.5607 7.16529 21.2931L0.550446 14.3795C0.254764 14.0688 0.144939 13.6199 0.27166 13.2143C0.398381 12.8 0.736304 12.4979 1.15026 12.4115L10.308 10.9874C10.6628 10.927 10.9669 10.6939 11.119 10.3573L15.2163 1.47572C15.3853 1.08731 15.7654 0.828369 16.1794 0.828369C16.5933 0.828369 16.9735 1.07868 17.1425 1.47572H17.1509Z" fill="#F6AB27"/>
<path fill-rule="evenodd" clip-rule="evenodd" d="M20.2513 8.19948C17.6071 9.6409 15.1656 11.4448 12.9945 13.5509C10.6797 15.8123 8.71973 18.4275 7.17373 21.2931L0.550446 14.3881C0.254764 14.0774 0.144939 13.6286 0.27166 13.2229C0.398381 12.8086 0.736304 12.5065 1.15026 12.4202L10.308 10.996C10.6628 10.9356 10.9669 10.7026 11.119 10.3659L15.2163 1.46708C15.3853 1.07868 15.7654 0.828369 16.1878 0.828369C16.6102 0.828369 16.9819 1.07868 17.1594 1.46708L20.2598 8.19948H20.2513Z" fill="#F4CD1E"/>
</svg>
